<?xml version="1.0" encoding="UTF-8"?>
<!--Generator: Apple Native CoreSVG 123-->
<!DOCTYPE svg
PUBLIC "-//W3C//DTD SVG 1.1//EN"
       "http://www.w3.org/Graphics/SVG/1.1/DTD/svg11.dtd">
<svg version="1.1" xmlns="http://www.w3.org/2000/svg" xmlns:xlink="http://www.w3.org/1999/xlink" width="3300" height="2200">
 <!--glyph: "uni100750.medium", point size: 100.000000, font version: "Version 15.0d7e11", template writer version: "5"-->
 <g id="Notes">
  <rect height="2200" id="artboard" style="fill:white;opacity:1" width="3300" x="0" y="0"/>
  <line id="" style="fill:none;stroke:black;opacity:1;stroke-width:0.5;" x1="263" x2="3036" y1="292" y2="292"/>
  <text style="stroke:none;fill:black;font-family:-apple-system,&quot;SF Pro Display&quot;,&quot;SF Pro Text&quot;,Helvetica,sans-serif;font-weight:bold;" transform="matrix(1 0 0 1 263 322)">Weight/Scale Variations</text>
  <text style="stroke:none;fill:black;font-family:-apple-system,&quot;SF Pro Display&quot;,&quot;SF Pro Text&quot;,Helvetica,sans-serif;text-anchor:middle;" transform="matrix(1 0 0 1 559.711 322)">Ultralight</text>
  <text style="stroke:none;fill:black;font-family:-apple-system,&quot;SF Pro Display&quot;,&quot;SF Pro Text&quot;,Helvetica,sans-serif;text-anchor:middle;" transform="matrix(1 0 0 1 856.422 322)">Thin</text>
  <text style="stroke:none;fill:black;font-family:-apple-system,&quot;SF Pro Display&quot;,&quot;SF Pro Text&quot;,Helvetica,sans-serif;text-anchor:middle;" transform="matrix(1 0 0 1 1153.13 322)">Light</text>
  <text style="stroke:none;fill:black;font-family:-apple-system,&quot;SF Pro Display&quot;,&quot;SF Pro Text&quot;,Helvetica,sans-serif;text-anchor:middle;" transform="matrix(1 0 0 1 1449.84 322)">Regular</text>
  <text style="stroke:none;fill:black;font-family:-apple-system,&quot;SF Pro Display&quot;,&quot;SF Pro Text&quot;,Helvetica,sans-serif;text-anchor:middle;" transform="matrix(1 0 0 1 1746.56 322)">Medium</text>
  <text style="stroke:none;fill:black;font-family:-apple-system,&quot;SF Pro Display&quot;,&quot;SF Pro Text&quot;,Helvetica,sans-serif;text-anchor:middle;" transform="matrix(1 0 0 1 2043.27 322)">Semibold</text>
  <text style="stroke:none;fill:black;font-family:-apple-system,&quot;SF Pro Display&quot;,&quot;SF Pro Text&quot;,Helvetica,sans-serif;text-anchor:middle;" transform="matrix(1 0 0 1 2339.98 322)">Bold</text>
  <text style="stroke:none;fill:black;font-family:-apple-system,&quot;SF Pro Display&quot;,&quot;SF Pro Text&quot;,Helvetica,sans-serif;text-anchor:middle;" transform="matrix(1 0 0 1 2636.69 322)">Heavy</text>
  <text style="stroke:none;fill:black;font-family:-apple-system,&quot;SF Pro Display&quot;,&quot;SF Pro Text&quot;,Helvetica,sans-serif;text-anchor:middle;" transform="matrix(1 0 0 1 2933.4 322)">Black</text>
  <line id="" style="fill:none;stroke:black;opacity:1;stroke-width:0.5;" x1="263" x2="3036" y1="1903" y2="1903"/>
  <g id="" transform="matrix(1 0 0 1 263 1933)">
   <path d="M 9.24805 0.830078 C 13.5547 0.830078 17.1387 -2.74414 17.1387 -7.05078 C 17.1387 -11.3574 13.5449 -14.9316 9.23828 -14.9316 C 4.94141 -14.9316 1.36719 -11.3574 1.36719 -7.05078 C 1.36719 -2.74414 4.95117 0.830078 9.24805 0.830078 Z M 9.24805 -0.654297 C 5.70312 -0.654297 2.87109 -3.49609 2.87109 -7.05078 C 2.87109 -10.6055 5.69336 -13.4473 9.23828 -13.4473 C 12.793 -13.4473 15.6348 -10.6055 15.6445 -7.05078 C 15.6543 -3.49609 12.8027 -0.654297 9.24805 -0.654297 Z M 9.22852 -3.42773 C 9.69727 -3.42773 9.9707 -3.74023 9.9707 -4.25781 L 9.9707 -6.31836 L 12.1973 -6.31836 C 12.6953 -6.31836 13.0371 -6.57227 13.0371 -7.04102 C 13.0371 -7.51953 12.7148 -7.7832 12.1973 -7.7832 L 9.9707 -7.7832 L 9.9707 -10.0098 C 9.9707 -10.5273 9.69727 -10.8496 9.22852 -10.8496 C 8.75977 -10.8496 8.50586 -10.5078 8.50586 -10.0098 L 8.50586 -7.7832 L 6.29883 -7.7832 C 5.78125 -7.7832 5.44922 -7.51953 5.44922 -7.04102 C 5.44922 -6.57227 5.80078 -6.31836 6.29883 -6.31836 L 8.50586 -6.31836 L 8.50586 -4.25781 C 8.50586 -3.75977 8.75977 -3.42773 9.22852 -3.42773 Z"/>
  </g>
  <g id="" transform="matrix(1 0 0 1 281.506 1933)">
   <path d="M 11.709 2.91016 C 17.1582 2.91016 21.6699 -1.60156 21.6699 -7.05078 C 21.6699 -12.4902 17.1484 -17.0117 11.6992 -17.0117 C 6.25977 -17.0117 1.74805 -12.4902 1.74805 -7.05078 C 1.74805 -1.60156 6.26953 2.91016 11.709 2.91016 Z M 11.709 1.25 C 7.09961 1.25 3.41797 -2.44141 3.41797 -7.05078 C 3.41797 -11.6504 7.08984 -15.3516 11.6992 -15.3516 C 16.3086 -15.3516 20 -11.6504 20.0098 -7.05078 C 20.0195 -2.44141 16.3184 1.25 11.709 1.25 Z M 11.6895 -2.41211 C 12.207 -2.41211 12.5195 -2.77344 12.5195 -3.33984 L 12.5195 -6.23047 L 15.5762 -6.23047 C 16.123 -6.23047 16.5039 -6.51367 16.5039 -7.03125 C 16.5039 -7.55859 16.1426 -7.86133 15.5762 -7.86133 L 12.5195 -7.86133 L 12.5195 -10.9277 C 12.5195 -11.5039 12.207 -11.8555 11.6895 -11.8555 C 11.1719 -11.8555 10.8789 -11.4844 10.8789 -10.9277 L 10.8789 -7.86133 L 7.83203 -7.86133 C 7.26562 -7.86133 6.89453 -7.55859 6.89453 -7.03125 C 6.89453 -6.51367 7.28516 -6.23047 7.83203 -6.23047 L 10.8789 -6.23047 L 10.8789 -3.33984 C 10.8789 -2.79297 11.1719 -2.41211 11.6895 -2.41211 Z"/>
  </g>
  <g id="" transform="matrix(1 0 0 1 304.924 1933)">
   <path d="M 14.9707 5.67383 C 21.9336 5.67383 27.6953 -0.078125 27.6953 -7.04102 C 27.6953 -14.0039 21.9238 -19.7559 14.9609 -19.7559 C 8.00781 -19.7559 2.25586 -14.0039 2.25586 -7.04102 C 2.25586 -0.078125 8.01758 5.67383 14.9707 5.67383 Z M 14.9707 3.85742 C 8.93555 3.85742 4.08203 -1.00586 4.08203 -7.04102 C 4.08203 -13.0762 8.92578 -17.9395 14.9609 -17.9395 C 21.0059 -17.9395 25.8594 -13.0762 25.8691 -7.04102 C 25.8789 -1.00586 21.0156 3.85742 14.9707 3.85742 Z M 14.9512 -1.06445 C 15.5176 -1.06445 15.8691 -1.45508 15.8691 -2.06055 L 15.8691 -6.13281 L 20.1074 -6.13281 C 20.6934 -6.13281 21.1133 -6.46484 21.1133 -7.02148 C 21.1133 -7.59766 20.7227 -7.93945 20.1074 -7.93945 L 15.8691 -7.93945 L 15.8691 -12.1875 C 15.8691 -12.8027 15.5176 -13.1934 14.9512 -13.1934 C 14.3848 -13.1934 14.0625 -12.7832 14.0625 -12.1875 L 14.0625 -7.93945 L 9.83398 -7.93945 C 9.21875 -7.93945 8.80859 -7.59766 8.80859 -7.02148 C 8.80859 -6.46484 9.23828 -6.13281 9.83398 -6.13281 L 14.0625 -6.13281 L 14.0625 -2.06055 C 14.0625 -1.47461 14.3848 -1.06445 14.9512 -1.06445 Z"/>
  </g>
  <text style="stroke:none;fill:black;font-family:-apple-system,&quot;SF Pro Display&quot;,&quot;SF Pro Text&quot;,Helvetica,sans-serif;font-weight:bold;" transform="matrix(1 0 0 1 263 1953)">Design Variations</text>
  <text style="stroke:none;fill:black;font-family:-apple-system,&quot;SF Pro Display&quot;,&quot;SF Pro Text&quot;,Helvetica,sans-serif;" transform="matrix(1 0 0 1 263 1971)">Symbols are supported in up to nine weights and three scales.</text>
  <text style="stroke:none;fill:black;font-family:-apple-system,&quot;SF Pro Display&quot;,&quot;SF Pro Text&quot;,Helvetica,sans-serif;" transform="matrix(1 0 0 1 263 1989)">For optimal layout with text and other symbols, vertically align</text>
  <text style="stroke:none;fill:black;font-family:-apple-system,&quot;SF Pro Display&quot;,&quot;SF Pro Text&quot;,Helvetica,sans-serif;" transform="matrix(1 0 0 1 263 2007)">symbols with the adjacent text.</text>
  <rect height="14" id="" style="fill:#00AEEF;stroke:none;opacity:0.4;" width="3" x="776" y="1919"/>
  <g id="" transform="matrix(1 0 0 1 779 1933)">
   <path d="M 10.5273 0 L 12.373 0 L 7.17773 -14.0918 L 5.43945 -14.0918 L 0.244141 0 L 2.08984 0 L 3.50586 -4.0332 L 9.11133 -4.0332 Z M 6.2793 -11.9531 L 6.33789 -11.9531 L 8.59375 -5.52734 L 4.02344 -5.52734 Z"/>
  </g>
  <rect height="14" id="" style="fill:#00AEEF;stroke:none;opacity:0.4;" width="3" x="791.617" y="1919"/>
  <text style="stroke:none;fill:black;font-family:-apple-system,&quot;SF Pro Display&quot;,&quot;SF Pro Text&quot;,Helvetica,sans-serif;font-weight:bold;" transform="matrix(1 0 0 1 776 1953)">Margins</text>
  <text style="stroke:none;fill:black;font-family:-apple-system,&quot;SF Pro Display&quot;,&quot;SF Pro Text&quot;,Helvetica,sans-serif;" transform="matrix(1 0 0 1 776 1971)">Leading and trailing margins on the left and right side of each symbol</text>
  <text style="stroke:none;fill:black;font-family:-apple-system,&quot;SF Pro Display&quot;,&quot;SF Pro Text&quot;,Helvetica,sans-serif;" transform="matrix(1 0 0 1 776 1989)">can be adjusted by modifying the width of the blue rectangles.</text>
  <text style="stroke:none;fill:black;font-family:-apple-system,&quot;SF Pro Display&quot;,&quot;SF Pro Text&quot;,Helvetica,sans-serif;" transform="matrix(1 0 0 1 776 2007)">Modifications are automatically applied proportionally to all</text>
  <text style="stroke:none;fill:black;font-family:-apple-system,&quot;SF Pro Display&quot;,&quot;SF Pro Text&quot;,Helvetica,sans-serif;" transform="matrix(1 0 0 1 776 2025)">scales and weights.</text>
  <g id="" transform="matrix(1 0 0 1 1289 1933)">
   <path d="M 2.83203 3.11523 L 4.375 4.6582 C 5.22461 5.48828 6.19141 5.41992 7.06055 4.46289 L 17.2754 -6.66016 C 17.7051 -6.36719 18.0957 -6.37695 18.5645 -6.47461 L 19.6094 -6.68945 L 20.3027 -5.99609 L 20.2539 -5.47852 C 20.1855 -4.95117 20.3516 -4.53125 20.8496 -4.0332 L 21.6602 -3.22266 C 22.168 -2.71484 22.8223 -2.68555 23.3008 -3.16406 L 26.5527 -6.41602 C 27.0312 -6.89453 27.0117 -7.54883 26.5039 -8.05664 L 25.6836 -8.87695 C 25.1855 -9.375 24.7754 -9.55078 24.2383 -9.47266 L 23.7109 -9.41406 L 23.0566 -10.0781 L 23.3398 -11.2207 C 23.4863 -11.7871 23.3398 -12.2559 22.7148 -12.8613 L 20.3027 -15.2539 C 16.7578 -18.7793 12.2266 -18.6719 9.11133 -15.5371 C 8.69141 -15.1074 8.64258 -14.5215 8.91602 -14.0918 C 9.15039 -13.7207 9.62891 -13.4961 10.2734 -13.6621 C 11.7871 -14.043 13.3008 -13.9258 14.7852 -12.9199 L 14.1602 -11.3379 C 13.9258 -10.752 13.9453 -10.2734 14.1797 -9.83398 L 3.01758 0.439453 C 2.08008 1.30859 1.97266 2.25586 2.83203 3.11523 Z M 10.6738 -15.1465 C 13.3398 -17.1387 16.6504 -16.8262 19.0527 -14.4141 L 21.6797 -11.8066 C 21.9141 -11.5723 21.9434 -11.3867 21.8848 -11.0938 L 21.5039 -9.53125 L 23.0762 -7.95898 L 24.043 -8.04688 C 24.3262 -8.07617 24.4141 -8.05664 24.6387 -7.83203 L 25.2637 -7.20703 L 22.5098 -4.46289 L 21.8848 -5.07812 C 21.6602 -5.30273 21.6406 -5.40039 21.6699 -5.68359 L 21.7578 -6.64062 L 20.1953 -8.20312 L 18.5742 -7.89062 C 18.291 -7.83203 18.1445 -7.83203 17.9102 -8.07617 L 15.7324 -10.2539 C 15.5078 -10.4883 15.4785 -10.625 15.6055 -10.9473 L 16.5527 -13.2227 C 14.9512 -14.7559 12.8418 -15.6055 10.8008 -14.9512 C 10.7129 -14.9219 10.6445 -14.9414 10.6152 -14.9805 C 10.5859 -15.0293 10.5859 -15.0781 10.6738 -15.1465 Z M 4.10156 2.41211 C 3.61328 1.91406 3.78906 1.61133 4.12109 1.30859 L 15.0781 -8.80859 L 16.3086 -7.57812 L 6.15234 3.34961 C 5.84961 3.68164 5.46875 3.7793 5.06836 3.37891 Z"/>
  </g>
  <text style="stroke:none;fill:black;font-family:-apple-system,&quot;SF Pro Display&quot;,&quot;SF Pro Text&quot;,Helvetica,sans-serif;font-weight:bold;" transform="matrix(1 0 0 1 1289 1953)">Exporting</text>
  <text style="stroke:none;fill:black;font-family:-apple-system,&quot;SF Pro Display&quot;,&quot;SF Pro Text&quot;,Helvetica,sans-serif;" transform="matrix(1 0 0 1 1289 1971)">Symbols should be outlined when exporting to ensure the</text>
  <text style="stroke:none;fill:black;font-family:-apple-system,&quot;SF Pro Display&quot;,&quot;SF Pro Text&quot;,Helvetica,sans-serif;" transform="matrix(1 0 0 1 1289 1989)">design is preserved when submitting to Xcode.</text>
  <text id="template-version" style="stroke:none;fill:black;font-family:-apple-system,&quot;SF Pro Display&quot;,&quot;SF Pro Text&quot;,Helvetica,sans-serif;text-anchor:end;" transform="matrix(1 0 0 1 3036 1933)">Template v.1.0</text>
  <text style="stroke:none;fill:black;font-family:-apple-system,&quot;SF Pro Display&quot;,&quot;SF Pro Text&quot;,Helvetica,sans-serif;text-anchor:end;" transform="matrix(1 0 0 1 3036 1951)">Generated from sportscourt</text>
  <text style="stroke:none;fill:black;font-family:-apple-system,&quot;SF Pro Display&quot;,&quot;SF Pro Text&quot;,Helvetica,sans-serif;text-anchor:end;" transform="matrix(1 0 0 1 3036 1969)">Typeset at 100 points</text>
  <text style="stroke:none;fill:black;font-family:-apple-system,&quot;SF Pro Display&quot;,&quot;SF Pro Text&quot;,Helvetica,sans-serif;" transform="matrix(1 0 0 1 263 726)">Small</text>
  <text style="stroke:none;fill:black;font-family:-apple-system,&quot;SF Pro Display&quot;,&quot;SF Pro Text&quot;,Helvetica,sans-serif;" transform="matrix(1 0 0 1 263 1156)">Medium</text>
  <text style="stroke:none;fill:black;font-family:-apple-system,&quot;SF Pro Display&quot;,&quot;SF Pro Text&quot;,Helvetica,sans-serif;" transform="matrix(1 0 0 1 263 1586)">Large</text>
 </g>
 <g id="Guides">
  <g id="H-reference" style="fill:#27AAE1;stroke:none;" transform="matrix(1 0 0 1 339 696)">
   <path d="M 54.9316 0 L 57.666 0 L 30.5664 -70.459 L 28.0762 -70.459 L 0.976562 0 L 3.66211 0 L 12.9395 -24.4629 L 45.7031 -24.4629 Z M 29.1992 -67.0898 L 29.4434 -67.0898 L 44.8242 -26.709 L 13.8184 -26.709 Z"/>
  </g>
  <line id="Baseline-S" style="fill:none;stroke:#27AAE1;opacity:1;stroke-width:0.577;" x1="263" x2="3036" y1="696" y2="696"/>
  <line id="Capline-S" style="fill:none;stroke:#27AAE1;opacity:1;stroke-width:0.577;" x1="263" x2="3036" y1="625.541" y2="625.541"/>
  <g id="H-reference" style="fill:#27AAE1;stroke:none;" transform="matrix(1 0 0 1 339 1126)">
   <path d="M 54.9316 0 L 57.666 0 L 30.5664 -70.459 L 28.0762 -70.459 L 0.976562 0 L 3.66211 0 L 12.9395 -24.4629 L 45.7031 -24.4629 Z M 29.1992 -67.0898 L 29.4434 -67.0898 L 44.8242 -26.709 L 13.8184 -26.709 Z"/>
  </g>
  <line id="Baseline-M" style="fill:none;stroke:#27AAE1;opacity:1;stroke-width:0.577;" x1="263" x2="3036" y1="1126" y2="1126"/>
  <line id="Capline-M" style="fill:none;stroke:#27AAE1;opacity:1;stroke-width:0.577;" x1="263" x2="3036" y1="1055.54" y2="1055.54"/>
  <g id="H-reference" style="fill:#27AAE1;stroke:none;" transform="matrix(1 0 0 1 339 1556)">
   <path d="M 54.9316 0 L 57.666 0 L 30.5664 -70.459 L 28.0762 -70.459 L 0.976562 0 L 3.66211 0 L 12.9395 -24.4629 L 45.7031 -24.4629 Z M 29.1992 -67.0898 L 29.4434 -67.0898 L 44.8242 -26.709 L 13.8184 -26.709 Z"/>
  </g>
  <line id="Baseline-L" style="fill:none;stroke:#27AAE1;opacity:1;stroke-width:0.577;" x1="263" x2="3036" y1="1556" y2="1556"/>
  <line id="Capline-L" style="fill:none;stroke:#27AAE1;opacity:1;stroke-width:0.577;" x1="263" x2="3036" y1="1485.54" y2="1485.54"/>
  <rect height="119.336" id="left-margin" style="fill:#00AEEF;stroke:none;opacity:0.4;" width="12.4512" x="1368.45" y="1030.79"/>
  <rect height="119.336" id="right-margin" style="fill:#00AEEF;stroke:none;opacity:0.4;" width="12.4512" x="1518.79" y="1030.79"/>
 </g>
 <g id="Symbols">
  <g id="Black-L" transform="matrix(1 0 0 1 2822.51 1556)">
   <path d="M 39.9902 30.9082 L 181.787 30.9082 C 197.07 30.9082 205.713 22.2656 205.713 7.08008 L 205.713 -77.4902 C 205.713 -92.6758 197.07 -101.27 181.787 -101.27 L 39.9902 -101.27 C 24.7559 -101.27 16.0645 -92.6758 16.0645 -77.4902 L 16.0645 7.08008 C 16.0645 22.2656 24.7559 30.9082 39.9902 30.9082 Z M 42.6758 10.6445 C 38.4766 10.6445 36.3281 8.78906 36.3281 4.24805 L 36.3281 -2.92969 L 49.2676 -2.92969 C 61.4746 -2.92969 68.6523 -10.1562 68.6523 -22.3145 L 68.6523 -48.0957 C 68.6523 -60.2539 61.4746 -67.4805 49.2676 -67.4805 L 36.3281 -67.4805 L 36.3281 -74.6094 C 36.3281 -79.1504 38.4766 -81.0547 42.6758 -81.0547 L 101.953 -81.0547 L 101.953 -66.5039 C 88.2812 -62.7441 78.418 -50.1953 78.418 -35.2051 C 78.418 -20.166 88.2812 -7.76367 101.953 -3.95508 L 101.953 10.6445 Z M 143.359 -35.2051 C 143.115 -50.1465 133.447 -62.4023 119.824 -66.3086 L 119.824 -81.0547 L 179.102 -81.0547 C 183.301 -81.0547 185.449 -79.1504 185.449 -74.6094 L 185.449 -67.4805 L 172.51 -67.4805 C 160.303 -67.4805 153.125 -60.2539 153.125 -48.0957 L 153.125 -22.3145 C 153.125 -10.1562 160.4 -2.92969 172.51 -2.92969 L 185.449 -2.92969 L 185.449 4.24805 C 185.449 8.78906 183.301 10.6445 179.102 10.6445 L 119.824 10.6445 L 119.824 -3.95508 C 133.594 -7.8125 143.555 -20.2148 143.359 -35.2051 Z M 174.756 -20.2637 C 171.875 -20.2637 170.41 -21.5332 170.41 -24.6094 L 170.41 -45.8008 C 170.41 -48.877 171.875 -50.1465 174.756 -50.1465 L 185.449 -50.1465 L 185.449 -20.2637 Z M 47.0215 -50.1465 C 49.9023 -50.1465 51.3672 -48.877 51.3672 -45.8008 L 51.3672 -24.6094 C 51.3672 -21.5332 49.9023 -20.2637 47.0215 -20.2637 L 36.3281 -20.2637 L 36.3281 -50.1465 Z M 93.8965 -35.2539 C 93.8965 -41.4062 97.0703 -46.7285 101.953 -49.6582 L 101.953 -20.8496 C 97.1191 -23.877 93.8965 -29.248 93.8965 -35.2539 Z M 127.881 -35.2539 C 127.783 -29.2969 124.609 -23.9258 119.824 -20.8984 L 119.824 -49.5605 C 124.658 -46.582 127.93 -41.3086 127.881 -35.2539 Z"/>
  </g>
  <g id="Heavy-L" transform="matrix(1 0 0 1 2527.51 1556)">
   <path d="M 38.8184 29.3945 L 179.541 29.3945 C 194.189 29.3945 202.295 21.2891 202.295 6.73828 L 202.295 -77.1484 C 202.295 -91.6504 194.189 -99.7559 179.541 -99.7559 L 38.8184 -99.7559 C 24.2188 -99.7559 16.0645 -91.6992 16.0645 -77.1484 L 16.0645 6.73828 C 16.0645 21.3379 24.2188 29.3945 38.8184 29.3945 Z M 40.918 11.9141 C 36.084 11.9141 33.5938 9.61914 33.5938 4.44336 L 33.5938 -3.27148 L 47.7539 -3.27148 C 59.1797 -3.27148 65.8691 -9.96094 65.8691 -21.3867 L 65.8691 -48.9746 C 65.8691 -60.4004 59.1797 -67.1387 47.7539 -67.1387 L 33.5938 -67.1387 L 33.5938 -74.8535 C 33.5938 -79.9805 36.084 -82.2754 40.918 -82.2754 L 101.221 -82.2754 L 101.221 -66.0156 C 87.4512 -62.6465 77.3926 -50.1953 77.3926 -35.2051 C 77.3926 -20.166 87.4512 -7.8125 101.221 -4.39453 L 101.221 11.9141 Z M 140.82 -35.2051 C 140.576 -50.1465 130.762 -62.3535 116.943 -65.8691 L 116.943 -82.2754 L 177.393 -82.2754 C 182.227 -82.2754 184.766 -79.9805 184.766 -74.8535 L 184.766 -67.1387 L 170.605 -67.1387 C 159.18 -67.1387 152.441 -60.4004 152.441 -48.9746 L 152.441 -21.3867 C 152.441 -9.96094 159.229 -3.27148 170.605 -3.27148 L 184.766 -3.27148 L 184.766 4.44336 C 184.766 9.61914 182.227 11.9141 177.393 11.9141 L 116.943 11.9141 L 116.943 -4.44336 C 130.859 -7.86133 141.016 -20.2148 140.82 -35.2051 Z M 172.363 -18.5547 C 169.336 -18.5547 167.725 -19.9707 167.725 -23.1445 L 167.725 -47.2168 C 167.725 -50.3906 169.336 -51.8555 172.363 -51.8555 L 184.766 -51.8555 L 184.766 -18.5547 Z M 45.9961 -51.8555 C 49.0234 -51.8555 50.6348 -50.3906 50.6348 -47.2168 L 50.6348 -23.1445 C 50.6348 -19.9707 49.0234 -18.5547 45.9961 -18.5547 L 33.5938 -18.5547 L 33.5938 -51.8555 Z M 91.0645 -35.2539 C 91.0645 -42.4805 95.2148 -48.5352 101.221 -51.416 L 101.221 -19.043 C 95.2637 -21.9727 91.0645 -28.1738 91.0645 -35.2539 Z M 127.148 -35.2539 C 127.051 -28.2227 122.9 -22.0215 116.943 -19.043 L 116.943 -51.3672 C 122.998 -48.4375 127.197 -42.334 127.148 -35.2539 Z"/>
  </g>
  <g id="Bold-L" transform="matrix(1 0 0 1 2232.73 1556)">
   <path d="M 37.5 27.7344 L 177.002 27.7344 C 190.967 27.7344 198.438 20.2148 198.438 6.39648 L 198.438 -76.7578 C 198.438 -90.5762 190.967 -98.0469 177.002 -98.0469 L 37.5 -98.0469 C 23.6328 -98.0469 16.0645 -90.5762 16.0645 -76.7578 L 16.0645 6.39648 C 16.0645 20.2148 23.6328 27.7344 37.5 27.7344 Z M 38.9648 13.2812 C 33.4473 13.2812 30.5176 10.498 30.5176 4.73633 L 30.5176 -3.61328 L 46.0449 -3.61328 C 56.5918 -3.61328 62.793 -9.81445 62.793 -20.3613 L 62.793 -50.0488 C 62.793 -60.5957 56.5918 -66.748 46.0449 -66.748 L 30.5176 -66.748 L 30.5176 -75.0977 C 30.5176 -80.8594 33.4473 -83.5938 38.9648 -83.5938 L 100.488 -83.5938 L 100.488 -65.4297 C 86.5234 -62.5 76.2207 -50.1465 76.2207 -35.1562 C 76.2207 -20.2148 86.5234 -7.95898 100.488 -4.98047 L 100.488 13.2812 Z M 137.988 -35.1562 C 137.793 -50.0977 127.686 -62.2559 113.721 -65.332 L 113.721 -83.5938 L 175.537 -83.5938 C 181.006 -83.5938 184.033 -80.8594 184.033 -75.0977 L 184.033 -66.748 L 168.457 -66.748 C 157.91 -66.748 151.758 -60.5957 151.758 -50.0488 L 151.758 -20.3613 C 151.758 -9.81445 157.959 -3.61328 168.457 -3.61328 L 184.033 -3.61328 L 184.033 4.73633 C 184.033 10.498 181.006 13.2812 175.537 13.2812 L 113.721 13.2812 L 113.721 -4.98047 C 127.783 -7.95898 138.135 -20.2148 137.988 -35.1562 Z M 169.678 -16.6016 C 166.455 -16.6016 164.746 -18.2617 164.746 -21.582 L 164.746 -48.8281 C 164.746 -52.1484 166.455 -53.7598 169.678 -53.7598 L 184.033 -53.7598 L 184.033 -16.6016 Z M 44.8242 -53.7598 C 48.0469 -53.7598 49.8047 -52.1484 49.8047 -48.8281 L 49.8047 -21.582 C 49.8047 -18.2617 48.0469 -16.6016 44.8242 -16.6016 L 30.5176 -16.6016 L 30.5176 -53.7598 Z M 87.8906 -35.2539 C 87.8906 -43.6035 93.1152 -50.5371 100.488 -53.2227 L 100.488 -17.1875 C 93.1641 -19.9219 87.8906 -27.0508 87.8906 -35.2539 Z M 126.318 -35.2539 C 126.221 -27.0508 120.996 -19.9707 113.721 -17.1875 L 113.721 -53.1738 C 121.045 -50.4883 126.367 -43.457 126.318 -35.2539 Z"/>
  </g>
  <g id="Semibold-L" transform="matrix(1 0 0 1 1937.33 1556)">
   <path d="M 36.6211 26.5625 L 175.244 26.5625 C 188.721 26.5625 195.801 19.4336 195.801 6.15234 L 195.801 -76.4648 C 195.801 -89.7949 188.721 -96.875 175.244 -96.875 L 36.6211 -96.875 C 23.1934 -96.875 16.0645 -89.8438 16.0645 -76.4648 L 16.0645 6.15234 C 16.0645 19.4824 23.1934 26.5625 36.6211 26.5625 Z M 37.5977 14.209 C 31.6406 14.209 28.418 11.1328 28.418 4.93164 L 28.418 -3.85742 L 44.873 -3.85742 C 54.834 -3.85742 60.6445 -9.66797 60.6445 -19.6289 L 60.6445 -50.7324 C 60.6445 -60.6934 54.834 -66.5039 44.873 -66.5039 L 28.418 -66.5039 L 28.418 -75.2441 C 28.418 -81.4941 31.6406 -84.5703 37.5977 -84.5703 L 99.9512 -84.5703 L 99.9512 -64.9902 C 85.8887 -62.4023 75.4395 -50.0977 75.4395 -35.1562 C 75.4395 -20.2148 85.8887 -8.00781 99.9512 -5.37109 L 99.9512 14.209 Z M 136.035 -35.1562 C 135.889 -50.0977 125.586 -62.1582 111.523 -64.8926 L 111.523 -84.5703 L 174.268 -84.5703 C 180.176 -84.5703 183.496 -81.4941 183.496 -75.2441 L 183.496 -66.5039 L 166.992 -66.5039 C 157.031 -66.5039 151.221 -60.6934 151.221 -50.7324 L 151.221 -19.6289 C 151.221 -9.66797 157.031 -3.85742 166.992 -3.85742 L 183.496 -3.85742 L 183.496 4.93164 C 183.496 11.1328 180.176 14.209 174.268 14.209 L 111.523 14.209 L 111.523 -5.37109 C 125.635 -8.05664 136.182 -20.2637 136.035 -35.1562 Z M 167.822 -15.2832 C 164.453 -15.2832 162.646 -17.041 162.646 -20.459 L 162.646 -49.9023 C 162.646 -53.3203 164.453 -55.0781 167.822 -55.0781 L 183.496 -55.0781 L 183.496 -15.2832 Z M 44.043 -55.0781 C 47.4121 -55.0781 49.2188 -53.3203 49.2188 -49.9023 L 49.2188 -20.459 C 49.2188 -17.041 47.4121 -15.2832 44.043 -15.2832 L 28.418 -15.2832 L 28.418 -55.0781 Z M 85.6934 -35.2051 C 85.6934 -44.3359 91.6992 -51.9043 99.9512 -54.3457 L 99.9512 -16.0645 C 91.748 -18.5547 85.6934 -26.2695 85.6934 -35.2051 Z M 125.732 -35.2051 C 125.635 -26.2695 119.678 -18.5547 111.523 -16.0645 L 111.523 -54.2969 C 119.727 -51.8066 125.781 -44.1895 125.732 -35.2051 Z"/>
  </g>
  <g id="Medium-L" transform="matrix(1 0 0 1 1641.62 1556)">
   <path d="M 35.9375 25.6836 L 173.926 25.6836 C 187.012 25.6836 193.799 18.8965 193.799 5.95703 L 193.799 -76.2695 C 193.799 -89.209 187.012 -95.9961 173.926 -95.9961 L 35.9375 -95.9961 C 22.9004 -95.9961 16.0645 -89.2578 16.0645 -76.2695 L 16.0645 5.95703 C 16.0645 18.9453 22.9004 25.6836 35.9375 25.6836 Z M 36.5723 14.9414 C 30.2246 14.9414 26.8066 11.6211 26.8066 5.07812 L 26.8066 -4.05273 L 43.9941 -4.05273 C 53.5156 -4.05273 59.0332 -9.57031 59.0332 -19.0918 L 59.0332 -51.2695 C 59.0332 -60.791 53.5156 -66.3086 43.9941 -66.3086 L 26.8066 -66.3086 L 26.8066 -75.3906 C 26.8066 -81.9336 30.2246 -85.2539 36.5723 -85.2539 L 99.5117 -85.2539 L 99.5117 -64.6484 C 85.4004 -62.3535 74.8047 -50.0977 74.8047 -35.1562 C 74.8047 -20.2637 85.4004 -8.10547 99.5117 -5.71289 L 99.5117 14.9414 Z M 134.57 -35.1562 C 134.424 -50.0488 123.975 -62.1094 109.863 -64.5996 L 109.863 -85.2539 L 173.291 -85.2539 C 179.541 -85.2539 183.057 -81.9336 183.057 -75.3906 L 183.057 -66.3086 L 165.918 -66.3086 C 156.348 -66.3086 150.879 -60.791 150.879 -51.2695 L 150.879 -19.0918 C 150.879 -9.57031 156.396 -4.05273 165.918 -4.05273 L 183.057 -4.05273 L 183.057 5.07812 C 183.057 11.6211 179.541 14.9414 173.291 14.9414 L 109.863 14.9414 L 109.863 -5.71289 C 124.023 -8.10547 134.717 -20.2637 134.57 -35.1562 Z M 166.455 -14.2578 C 162.988 -14.2578 161.084 -16.1621 161.084 -19.6289 L 161.084 -50.7324 C 161.084 -54.248 162.988 -56.1035 166.455 -56.1035 L 183.057 -56.1035 L 183.057 -14.2578 Z M 43.457 -56.1035 C 46.875 -56.1035 48.7793 -54.248 48.7793 -50.7324 L 48.7793 -19.6289 C 48.7793 -16.1621 46.875 -14.2578 43.457 -14.2578 L 26.8066 -14.2578 L 26.8066 -56.1035 Z M 84.082 -35.2051 C 84.082 -44.9219 90.625 -52.8809 99.5117 -55.127 L 99.5117 -15.1855 C 90.6738 -17.5293 84.082 -25.6836 84.082 -35.2051 Z M 125.293 -35.2051 C 125.195 -25.6836 118.652 -17.5293 109.863 -15.2344 L 109.863 -55.127 C 118.701 -52.832 125.342 -44.7754 125.293 -35.2051 Z"/>
  </g>
  <g id="Regular-L" transform="matrix(1 0 0 1 1346.21 1556)">
   <path d="M 35.0586 24.5117 L 172.168 24.5117 C 184.814 24.5117 191.211 18.1152 191.211 5.71289 L 191.211 -76.0254 C 191.211 -88.4766 184.814 -94.8242 172.168 -94.8242 L 35.0586 -94.8242 C 22.4609 -94.8242 16.0645 -88.5254 16.0645 -76.0254 L 16.0645 5.71289 C 16.0645 18.2129 22.4609 24.5117 35.0586 24.5117 Z M 35.2539 15.8691 C 28.418 15.8691 24.707 12.2559 24.707 5.22461 L 24.707 -4.29688 L 42.8223 -4.29688 C 51.7578 -4.29688 56.8848 -9.42383 56.8848 -18.4082 L 56.8848 -51.9531 C 56.8848 -60.9375 51.7578 -66.0645 42.8223 -66.0645 L 24.707 -66.0645 L 24.707 -75.5859 C 24.707 -82.5684 28.418 -86.1816 35.2539 -86.1816 L 98.9746 -86.1816 L 98.9746 -64.209 C 84.8145 -62.207 74.0234 -50.0488 74.0234 -35.1562 C 74.0234 -20.2637 84.8145 -8.1543 98.9746 -6.10352 L 98.9746 15.8691 Z M 132.617 -35.1562 C 132.52 -50.0488 121.924 -62.0117 107.666 -64.1602 L 107.666 -86.1816 L 172.021 -86.1816 C 178.711 -86.1816 182.568 -82.5684 182.568 -75.5859 L 182.568 -66.0645 L 164.453 -66.0645 C 155.518 -66.0645 150.391 -60.9375 150.391 -51.9531 L 150.391 -18.4082 C 150.391 -9.42383 155.518 -4.29688 164.453 -4.29688 L 182.568 -4.29688 L 182.568 5.22461 C 182.568 12.2559 178.711 15.8691 172.021 15.8691 L 107.666 15.8691 L 107.666 -6.15234 C 121.924 -8.20312 132.764 -20.2637 132.617 -35.1562 Z M 164.6 -12.9395 C 161.035 -12.9395 159.033 -14.9414 159.033 -18.5547 L 159.033 -51.8066 C 159.033 -55.4199 161.035 -57.4219 164.6 -57.4219 L 182.568 -57.4219 L 182.568 -12.9395 Z M 42.627 -57.4219 C 46.2402 -57.4219 48.2422 -55.4199 48.2422 -51.8066 L 48.2422 -18.5547 C 48.2422 -14.9414 46.2402 -12.9395 42.627 -12.9395 L 24.707 -12.9395 L 24.707 -57.4219 Z M 81.8848 -35.2051 C 81.8848 -45.6543 89.209 -54.1992 98.9746 -56.1523 L 98.9746 -14.1602 C 89.3066 -16.2109 81.8848 -24.9023 81.8848 -35.2051 Z M 124.756 -35.2051 C 124.658 -24.9023 117.334 -16.2109 107.666 -14.1602 L 107.666 -56.1523 C 117.383 -54.1504 124.805 -45.5078 124.756 -35.2051 Z"/>
  </g>
  <g id="Light-L" transform="matrix(1 0 0 1 1051.42 1556)">
   <path d="M 34.0332 23.1445 L 169.385 23.1445 C 181.25 23.1445 187.354 16.9922 187.354 5.32227 L 187.354 -75.5859 C 187.354 -87.2559 181.25 -93.4082 169.385 -93.4082 L 34.0332 -93.4082 C 22.168 -93.4082 16.0645 -87.3535 16.0645 -75.5859 L 16.0645 5.32227 C 16.0645 17.0898 22.168 23.1445 34.0332 23.1445 Z M 34.1797 16.5527 C 26.709 16.5527 22.7051 12.5977 22.7051 4.93164 L 22.7051 -5.12695 L 41.3574 -5.12695 C 49.7559 -5.12695 54.4434 -9.81445 54.4434 -18.2129 L 54.4434 -52.0996 C 54.4434 -60.498 49.7559 -65.1855 41.3574 -65.1855 L 22.7051 -65.1855 L 22.7051 -75.2441 C 22.7051 -82.8613 26.709 -86.8164 34.1797 -86.8164 L 97.9004 -86.8164 L 97.9004 -63.7695 C 83.5449 -62.207 72.4609 -50.0488 72.4609 -35.1562 C 72.4609 -20.2148 83.5449 -8.1543 97.9004 -6.54297 L 97.9004 16.5527 Z M 129.98 -35.1562 C 129.883 -50.0488 118.994 -62.0605 104.541 -63.7207 L 104.541 -86.8164 L 169.238 -86.8164 C 176.514 -86.8164 180.762 -82.8613 180.762 -75.2441 L 180.762 -65.1855 L 162.061 -65.1855 C 153.662 -65.1855 148.975 -60.498 148.975 -52.0996 L 148.975 -18.2129 C 148.975 -9.81445 153.662 -5.12695 162.061 -5.12695 L 180.762 -5.12695 L 180.762 4.93164 C 180.762 12.5977 176.514 16.5527 169.238 16.5527 L 104.541 16.5527 L 104.541 -6.54297 C 118.945 -8.1543 130.078 -20.2148 129.98 -35.1562 Z M 162.256 -11.7188 C 157.959 -11.7188 155.615 -14.0625 155.615 -18.3594 L 155.615 -51.9531 C 155.615 -56.25 157.959 -58.5938 162.256 -58.5938 L 180.762 -58.5938 L 180.762 -11.7188 Z M 41.1621 -58.5938 C 45.459 -58.5938 47.8027 -56.25 47.8027 -51.9531 L 47.8027 -18.3594 C 47.8027 -14.0625 45.459 -11.7188 41.1621 -11.7188 L 22.7051 -11.7188 L 22.7051 -58.5938 Z M 78.6133 -35.1562 C 78.6133 -46.6309 86.9629 -55.957 97.9004 -57.5684 L 97.9004 -12.7441 C 87.0117 -14.3555 78.6133 -23.7793 78.6133 -35.1562 Z M 123.779 -35.1562 C 123.73 -23.7793 115.381 -14.3555 104.541 -12.7441 L 104.541 -57.5684 C 115.43 -55.957 123.828 -46.5332 123.779 -35.1562 Z"/>
  </g>
  <g id="Thin-L" transform="matrix(1 0 0 1 757.252 1556)">
   <path d="M 32.666 21.3379 L 165.674 21.3379 C 176.562 21.3379 182.275 15.4785 182.275 4.78516 L 182.275 -75 C 182.275 -85.6934 176.562 -91.5527 165.674 -91.5527 L 32.666 -91.5527 C 21.7773 -91.5527 16.0645 -85.8398 16.0645 -75 L 16.0645 4.78516 C 16.0645 15.625 21.7773 21.3379 32.666 21.3379 Z M 32.8125 17.4316 C 24.4141 17.4316 19.9707 13.0371 19.9707 4.54102 L 19.9707 -6.20117 L 39.4043 -6.20117 C 47.0703 -6.20117 51.1719 -10.3027 51.1719 -17.9688 L 51.1719 -52.2949 C 51.1719 -59.9609 47.0703 -64.0625 39.4043 -64.0625 L 19.9707 -64.0625 L 19.9707 -74.8047 C 19.9707 -83.252 24.4141 -87.6465 32.8125 -87.6465 L 96.4844 -87.6465 L 96.4844 -63.1348 C 81.8848 -62.1582 70.4102 -50.0977 70.4102 -35.1074 C 70.4102 -20.166 81.8848 -8.10547 96.4844 -7.08008 L 96.4844 17.4316 Z M 126.465 -35.1074 C 126.416 -50.0977 115.088 -62.1582 100.391 -63.1348 L 100.391 -87.6465 L 165.527 -87.6465 C 173.633 -87.6465 178.32 -83.252 178.32 -74.8047 L 178.32 -64.0625 L 158.936 -64.0625 C 151.27 -64.0625 147.168 -59.9609 147.168 -52.2949 L 147.168 -17.9688 C 147.168 -10.3027 151.27 -6.20117 158.936 -6.20117 L 178.32 -6.20117 L 178.32 4.54102 C 178.32 13.0371 173.633 17.4316 165.527 17.4316 L 100.391 17.4316 L 100.391 -7.08008 C 114.941 -8.10547 126.465 -20.166 126.465 -35.1074 Z M 159.082 -10.1074 C 153.857 -10.1074 151.074 -12.8906 151.074 -18.1152 L 151.074 -52.0996 C 151.074 -57.3242 153.857 -60.1074 159.082 -60.1074 L 178.32 -60.1074 L 178.32 -10.1074 Z M 39.2578 -60.1074 C 44.4824 -60.1074 47.2656 -57.3242 47.2656 -52.0996 L 47.2656 -18.1152 C 47.2656 -12.8906 44.4824 -10.1074 39.2578 -10.1074 L 19.9707 -10.1074 L 19.9707 -60.1074 Z M 74.3164 -35.1074 C 74.3164 -47.9004 84.0332 -58.3008 96.4844 -59.2773 L 96.4844 -10.9375 C 84.0332 -11.9141 74.3164 -22.3633 74.3164 -35.1074 Z M 122.559 -35.1074 C 122.559 -22.3633 112.842 -11.9141 100.391 -10.9375 L 100.391 -59.2773 C 112.842 -58.3008 122.559 -47.9004 122.559 -35.1074 Z"/>
  </g>
  <g id="Ultralight-L" transform="matrix(1 0 0 1 461.835 1556)">
   <path d="M 31.9824 20.4102 L 163.77 20.4102 C 174.121 20.4102 179.688 14.6973 179.688 4.49219 L 179.688 -74.707 C 179.688 -84.9121 174.121 -90.625 163.77 -90.625 L 31.9824 -90.625 C 21.582 -90.625 16.0645 -85.0586 16.0645 -74.707 L 16.0645 4.49219 C 16.0645 14.8926 21.582 20.4102 31.9824 20.4102 Z M 32.1289 17.8711 C 23.1934 17.8711 18.6035 13.2324 18.6035 4.3457 L 18.6035 -6.73828 L 38.4277 -6.73828 C 45.7031 -6.73828 49.5117 -10.5469 49.5117 -17.8223 L 49.5117 -52.3438 C 49.5117 -59.668 45.7031 -63.4766 38.4277 -63.4766 L 18.6035 -63.4766 L 18.6035 -74.5605 C 18.6035 -83.4473 23.1934 -88.0859 32.1289 -88.0859 L 95.7031 -88.0859 L 95.7031 -62.793 C 81.0547 -62.1094 69.3359 -50.0977 69.3359 -35.1074 C 69.3359 -20.1172 81.0547 -8.05664 95.7031 -7.42188 L 95.7031 17.8711 Z M 124.658 -35.1074 C 124.658 -50.0977 113.086 -62.1582 98.291 -62.793 L 98.291 -88.0859 L 163.623 -88.0859 C 172.168 -88.0859 177.1 -83.4473 177.1 -74.5605 L 177.1 -63.4766 L 157.324 -63.4766 C 150 -63.4766 146.191 -59.668 146.191 -52.3438 L 146.191 -17.8223 C 146.191 -10.5469 150 -6.73828 157.324 -6.73828 L 177.1 -6.73828 L 177.1 4.3457 C 177.1 13.2324 172.168 17.8711 163.623 17.8711 L 98.291 17.8711 L 98.291 -7.42188 C 112.939 -8.05664 124.609 -20.1172 124.658 -35.1074 Z M 157.471 -9.27734 C 151.758 -9.27734 148.779 -12.3047 148.779 -18.0176 L 148.779 -52.1973 C 148.779 -57.9102 151.758 -60.8887 157.471 -60.8887 L 177.1 -60.8887 L 177.1 -9.27734 Z M 38.2812 -60.8887 C 43.9453 -60.8887 46.9727 -57.9102 46.9727 -52.1973 L 46.9727 -18.0176 C 46.9727 -12.3047 43.9453 -9.27734 38.2812 -9.27734 L 18.6035 -9.27734 L 18.6035 -60.8887 Z M 72.0703 -35.1074 C 72.0703 -48.5352 82.5195 -59.4727 95.7031 -60.1562 L 95.7031 -10.0586 C 82.5195 -10.6934 72.0703 -21.6309 72.0703 -35.1074 Z M 121.924 -35.1074 C 121.924 -21.6309 111.475 -10.6934 98.291 -10.0586 L 98.291 -60.1562 C 111.475 -59.4727 121.924 -48.584 121.924 -35.1074 Z"/>
  </g>
  <g id="Black-M" transform="matrix(1 0 0 1 2846.17 1126)">
   <path d="M 31.9824 17.334 L 142.48 17.334 C 154.736 17.334 162.012 10.0586 162.012 -2.19727 L 162.012 -68.1641 C 162.012 -80.4199 154.736 -87.6953 142.48 -87.6953 L 31.9824 -87.6953 C 19.7266 -87.6953 12.4512 -80.4199 12.4512 -68.1641 L 12.4512 -2.19727 C 12.4512 10.0586 19.7266 17.334 31.9824 17.334 Z M 34.9121 -0.976562 C 32.0801 -0.976562 30.7617 -2.05078 30.7617 -5.12695 L 30.7617 -10.2051 L 39.502 -10.2051 C 49.6582 -10.2051 55.6641 -16.2109 55.6641 -26.3672 L 55.6641 -43.9941 C 55.6641 -54.1504 49.6582 -60.2051 39.502 -60.2051 L 30.7617 -60.2051 L 30.7617 -65.2832 C 30.7617 -68.3594 32.0801 -69.4336 34.9121 -69.4336 L 79.3457 -69.4336 L 79.3457 -59.9121 C 68.8477 -56.6895 61.377 -46.875 61.377 -35.2051 C 61.377 -23.4863 68.8477 -13.7695 79.3457 -10.498 L 79.3457 -0.976562 Z M 113.086 -35.2051 C 112.891 -46.875 105.518 -56.4453 95.0684 -59.7656 L 95.0684 -69.4336 L 139.551 -69.4336 C 142.383 -69.4336 143.701 -68.3594 143.701 -65.2832 L 143.701 -60.2051 L 134.961 -60.2051 C 124.805 -60.2051 118.799 -54.1504 118.799 -43.9941 L 118.799 -26.3672 C 118.799 -16.2109 124.854 -10.2051 134.961 -10.2051 L 143.701 -10.2051 L 143.701 -5.12695 C 143.701 -2.05078 142.383 -0.976562 139.551 -0.976562 L 95.0684 -0.976562 L 95.0684 -10.5469 C 105.664 -13.8184 113.232 -23.5352 113.086 -35.2051 Z M 137.402 -25.293 C 135.01 -25.293 133.887 -26.2207 133.887 -28.8086 L 133.887 -41.6016 C 133.887 -44.1406 135.01 -45.1172 137.402 -45.1172 L 143.701 -45.1172 L 143.701 -25.293 Z M 37.0605 -45.1172 C 39.4531 -45.1172 40.5762 -44.1406 40.5762 -41.6016 L 40.5762 -28.8086 C 40.5762 -26.2207 39.4531 -25.293 37.0605 -25.293 L 30.7617 -25.293 L 30.7617 -45.1172 Z M 74.8047 -35.2539 C 74.8047 -39.1602 76.5625 -42.5781 79.3457 -44.7754 L 79.3457 -25.7324 C 76.6113 -28.0273 74.8047 -31.4453 74.8047 -35.2539 Z M 99.6094 -35.2539 C 99.5605 -31.4941 97.8027 -28.0762 95.0684 -25.7812 L 95.0684 -44.7266 C 97.8516 -42.4805 99.6582 -39.0625 99.6094 -35.2539 Z"/>
  </g>
  <g id="Heavy-M" transform="matrix(1 0 0 1 2550.85 1126)">
   <path d="M 31.0059 16.0156 L 140.723 16.0156 C 152.49 16.0156 159.229 9.27734 159.229 -2.44141 L 159.229 -67.9199 C 159.229 -79.6875 152.49 -86.4258 140.723 -86.4258 L 31.0059 -86.4258 C 19.2383 -86.4258 12.4512 -79.6875 12.4512 -67.9199 L 12.4512 -2.44141 C 12.4512 9.27734 19.2383 16.0156 31.0059 16.0156 Z M 33.252 0.195312 C 29.9316 0.195312 28.2715 -1.2207 28.2715 -4.78516 L 28.2715 -10.3516 L 38.1836 -10.3516 C 47.6562 -10.3516 53.2715 -15.918 53.2715 -25.3906 L 53.2715 -44.9707 C 53.2715 -54.4434 47.6562 -60.0586 38.1836 -60.0586 L 28.2715 -60.0586 L 28.2715 -65.5762 C 28.2715 -69.1406 29.9316 -70.6055 33.252 -70.6055 L 78.8574 -70.6055 L 78.8574 -59.5215 C 68.2617 -56.5918 60.6445 -46.875 60.6445 -35.2051 C 60.6445 -23.5352 68.2617 -13.8672 78.8574 -10.9375 L 78.8574 0.195312 Z M 110.986 -35.2051 C 110.84 -46.8262 103.32 -56.3477 92.7734 -59.375 L 92.7734 -70.6055 L 138.428 -70.6055 C 141.748 -70.6055 143.408 -69.1406 143.408 -65.5762 L 143.408 -60.0586 L 133.496 -60.0586 C 124.023 -60.0586 118.457 -54.4434 118.457 -44.9707 L 118.457 -25.3906 C 118.457 -15.918 124.072 -10.3516 133.496 -10.3516 L 143.408 -10.3516 L 143.408 -4.78516 C 143.408 -1.2207 141.748 0.195312 138.428 0.195312 L 92.7734 0.195312 L 92.7734 -10.9375 C 103.418 -13.916 111.133 -23.5352 110.986 -35.2051 Z M 135.4 -23.7305 C 133.008 -23.7305 131.836 -24.7559 131.836 -27.2949 L 131.836 -43.1152 C 131.836 -45.6543 133.008 -46.6797 135.4 -46.6797 L 143.408 -46.6797 L 143.408 -23.7305 Z M 36.3281 -46.6797 C 38.6719 -46.6797 39.8926 -45.6543 39.8926 -43.1152 L 39.8926 -27.2949 C 39.8926 -24.7559 38.6719 -23.7305 36.3281 -23.7305 L 28.2715 -23.7305 L 28.2715 -46.6797 Z M 72.5586 -35.2539 C 72.5586 -40.0391 75.0977 -44.1895 78.8574 -46.4844 L 78.8574 -24.0234 C 75.0977 -26.3672 72.5586 -30.5664 72.5586 -35.2539 Z M 99.0723 -35.2539 C 98.9746 -30.5664 96.4844 -26.416 92.7734 -24.0234 L 92.7734 -46.4355 C 96.5332 -44.0918 99.0723 -39.9414 99.0723 -35.2539 Z"/>
  </g>
  <g id="Bold-M" transform="matrix(1 0 0 1 2255.65 1126)">
   <path d="M 29.8828 14.5996 L 138.77 14.5996 C 150 14.5996 156.201 8.39844 156.201 -2.73438 L 156.201 -67.627 C 156.201 -78.8086 150 -84.9609 138.77 -84.9609 L 29.8828 -84.9609 C 18.6523 -84.9609 12.4512 -78.8086 12.4512 -67.627 L 12.4512 -2.73438 C 12.4512 8.44727 18.6523 14.5996 29.8828 14.5996 Z M 31.3965 1.51367 C 27.5391 1.51367 25.5371 -0.341797 25.5371 -4.39453 L 25.5371 -10.498 L 36.7676 -10.498 C 45.459 -10.498 50.5859 -15.625 50.5859 -24.3164 L 50.5859 -46.0938 C 50.5859 -54.7852 45.459 -59.9121 36.7676 -59.9121 L 25.5371 -59.9121 L 25.5371 -65.9668 C 25.5371 -70.0684 27.5391 -71.875 31.3965 -71.875 L 78.3691 -71.875 L 78.3691 -58.9844 C 67.627 -56.4453 59.8145 -46.8262 59.8145 -35.2051 C 59.8145 -23.584 67.627 -14.0137 78.3691 -11.4258 L 78.3691 1.51367 Z M 108.691 -35.2051 C 108.545 -46.7773 100.83 -56.2012 90.1367 -58.8867 L 90.1367 -71.875 L 137.207 -71.875 C 141.064 -71.875 143.115 -70.0684 143.115 -65.9668 L 143.115 -59.9121 L 131.885 -59.9121 C 123.193 -59.9121 118.066 -54.7852 118.066 -46.0938 L 118.066 -24.3164 C 118.066 -15.625 123.193 -10.498 131.885 -10.498 L 143.115 -10.498 L 143.115 -4.39453 C 143.115 -0.341797 141.064 1.51367 137.207 1.51367 L 90.1367 1.51367 L 90.1367 -11.4258 C 100.928 -14.0625 108.838 -23.584 108.691 -35.2051 Z M 133.154 -21.9727 C 130.762 -21.9727 129.541 -23.1445 129.541 -25.5859 L 129.541 -44.7754 C 129.541 -47.2656 130.762 -48.4375 133.154 -48.4375 L 143.115 -48.4375 L 143.115 -21.9727 Z M 35.4492 -48.4375 C 37.8418 -48.4375 39.1113 -47.2656 39.1113 -44.7754 L 39.1113 -25.5859 C 39.1113 -23.1445 37.8418 -21.9727 35.4492 -21.9727 L 25.5371 -21.9727 L 25.5371 -48.4375 Z M 70.0684 -35.2539 C 70.0684 -41.0156 73.4375 -45.8984 78.3691 -48.0469 L 78.3691 -22.3633 C 73.4863 -24.6582 70.0684 -29.5898 70.0684 -35.2539 Z M 98.4375 -35.2539 C 98.3398 -29.5898 94.9707 -24.6582 90.1367 -22.4121 L 90.1367 -48.0469 C 95.0195 -45.8008 98.4375 -40.918 98.4375 -35.2539 Z"/>
  </g>
  <g id="Semibold-M" transform="matrix(1 0 0 1 1960.01 1126)">
   <path d="M 29.1016 13.5742 L 137.402 13.5742 C 148.291 13.5742 154.053 7.8125 154.053 -2.92969 L 154.053 -67.4316 C 154.053 -78.1738 148.291 -83.9844 137.402 -83.9844 L 29.1016 -83.9844 C 18.2617 -83.9844 12.4512 -78.2227 12.4512 -67.4316 L 12.4512 -2.92969 C 12.4512 7.8125 18.2617 13.5742 29.1016 13.5742 Z M 30.127 2.39258 C 25.8789 2.39258 23.6328 0.292969 23.6328 -4.15039 L 23.6328 -10.5957 L 35.7422 -10.5957 C 43.9453 -10.5957 48.7305 -15.4297 48.7305 -23.584 L 48.7305 -46.8262 C 48.7305 -54.9805 43.9453 -59.8145 35.7422 -59.8145 L 23.6328 -59.8145 L 23.6328 -66.2109 C 23.6328 -70.6543 25.8789 -72.8027 30.127 -72.8027 L 77.9785 -72.8027 L 77.9785 -58.5938 C 67.1875 -56.3477 59.2285 -46.7773 59.2285 -35.2051 C 59.2285 -23.584 67.1875 -14.1113 77.9785 -11.8164 L 77.9785 2.39258 Z M 107.08 -35.2051 C 106.934 -46.7285 99.1211 -56.1523 88.3301 -58.5449 L 88.3301 -72.8027 L 136.377 -72.8027 C 140.576 -72.8027 142.871 -70.6543 142.871 -66.2109 L 142.871 -59.8145 L 130.762 -59.8145 C 122.607 -59.8145 117.773 -54.9805 117.773 -46.8262 L 117.773 -23.584 C 117.773 -15.4297 122.607 -10.5957 130.762 -10.5957 L 142.871 -10.5957 L 142.871 -4.15039 C 142.871 0.292969 140.576 2.39258 136.377 2.39258 L 88.3301 2.39258 L 88.3301 -11.8164 C 99.2188 -14.1602 107.227 -23.6328 107.08 -35.2051 Z M 131.641 -20.752 C 129.248 -20.752 127.93 -22.0215 127.93 -24.4629 L 127.93 -45.9473 C 127.93 -48.3887 129.248 -49.6582 131.641 -49.6582 L 142.871 -49.6582 L 142.871 -20.752 Z M 34.9121 -49.6582 C 37.2559 -49.6582 38.5742 -48.3887 38.5742 -45.9473 L 38.5742 -24.4629 C 38.5742 -22.0215 37.2559 -20.752 34.9121 -20.752 L 23.6328 -20.752 L 23.6328 -49.6582 Z M 68.3594 -35.2539 C 68.3594 -41.6504 72.3633 -47.0215 77.9785 -49.0723 L 77.9785 -21.3867 C 72.4121 -23.4863 68.3594 -28.9551 68.3594 -35.2539 Z M 97.998 -35.2539 C 97.9004 -28.9551 93.8965 -23.4863 88.3301 -21.3867 L 88.3301 -49.0234 C 93.9453 -46.9238 97.998 -41.5527 97.998 -35.2539 Z"/>
  </g>
  <g id="Medium-M" transform="matrix(1 0 0 1 1664.11 1126)">
   <path d="M 28.5156 12.8418 L 136.377 12.8418 C 146.973 12.8418 152.441 7.37305 152.441 -3.07617 L 152.441 -67.2852 C 152.441 -77.7344 146.973 -83.2031 136.377 -83.2031 L 28.5156 -83.2031 C 17.9688 -83.2031 12.4512 -77.7832 12.4512 -67.2852 L 12.4512 -3.07617 C 12.4512 7.37305 17.9688 12.8418 28.5156 12.8418 Z M 29.1504 3.07617 C 24.6582 3.07617 22.168 0.78125 22.168 -3.95508 L 22.168 -10.6934 L 35.0098 -10.6934 C 42.7734 -10.6934 47.3145 -15.2344 47.3145 -23.0469 L 47.3145 -47.4121 C 47.3145 -55.1758 42.7734 -59.7168 35.0098 -59.7168 L 22.168 -59.7168 L 22.168 -66.4062 C 22.168 -71.1426 24.6582 -73.4863 29.1504 -73.4863 L 77.6855 -73.4863 L 77.6855 -58.3496 C 66.8457 -56.25 58.7891 -46.7285 58.7891 -35.2051 C 58.7891 -23.6328 66.8457 -14.1602 77.6855 -12.0605 L 77.6855 3.07617 Z M 105.859 -35.2051 C 105.713 -46.7285 97.8516 -56.0547 86.9629 -58.252 L 86.9629 -73.4863 L 135.742 -73.4863 C 140.234 -73.4863 142.725 -71.1426 142.725 -66.4062 L 142.725 -59.7168 L 129.932 -59.7168 C 122.119 -59.7168 117.578 -55.1758 117.578 -47.4121 L 117.578 -23.0469 C 117.578 -15.2344 122.168 -10.6934 129.932 -10.6934 L 142.725 -10.6934 L 142.725 -3.95508 C 142.725 0.78125 140.234 3.07617 135.742 3.07617 L 86.9629 3.07617 L 86.9629 -12.1094 C 97.9004 -14.209 106.006 -23.6328 105.859 -35.2051 Z M 130.469 -19.873 C 128.076 -19.873 126.758 -21.1426 126.758 -23.584 L 126.758 -46.875 C 126.758 -49.2676 128.076 -50.5371 130.469 -50.5371 L 142.725 -50.5371 L 142.725 -19.873 Z M 34.4727 -50.5371 C 36.8164 -50.5371 38.1348 -49.2676 38.1348 -46.875 L 38.1348 -23.584 C 38.1348 -21.1426 36.8164 -19.873 34.4727 -19.873 L 22.168 -19.873 L 22.168 -50.5371 Z M 67.041 -35.2539 C 67.041 -42.1387 71.5332 -47.8516 77.6855 -49.7559 L 77.6855 -20.6543 C 71.582 -22.6562 67.041 -28.4668 67.041 -35.2539 Z M 97.6562 -35.2539 C 97.5586 -28.4668 93.1152 -22.6562 86.9629 -20.6543 L 86.9629 -49.7559 C 93.1641 -47.7539 97.7051 -41.9922 97.6562 -35.2539 Z"/>
  </g>
  <g id="Regular-M" transform="matrix(1 0 0 1 1368.45 1126)">
   <path d="M 27.7832 11.8652 L 135.059 11.8652 C 145.264 11.8652 150.342 6.78711 150.342 -3.27148 L 150.342 -67.0898 C 150.342 -77.1484 145.264 -82.2266 135.059 -82.2266 L 27.7832 -82.2266 C 17.5781 -82.2266 12.4512 -77.1973 12.4512 -67.0898 L 12.4512 -3.27148 C 12.4512 6.78711 17.5781 11.8652 27.7832 11.8652 Z M 27.8809 4.00391 C 22.998 4.00391 20.3125 1.36719 20.3125 -3.71094 L 20.3125 -10.791 L 33.9844 -10.791 C 41.2598 -10.791 45.5078 -15.0391 45.5078 -22.2656 L 45.5078 -48.1445 C 45.5078 -55.3711 41.2598 -59.6191 33.9844 -59.6191 L 20.3125 -59.6191 L 20.3125 -66.6992 C 20.3125 -71.7285 22.998 -74.3652 27.8809 -74.3652 L 77.3438 -74.3652 L 77.3438 -57.9102 C 66.4551 -56.1523 58.252 -46.7285 58.252 -35.2051 C 58.252 -23.6816 66.4551 -14.2578 77.3438 -12.4512 L 77.3438 4.00391 Z M 104.297 -35.2051 C 104.15 -46.6797 96.1426 -55.957 85.2051 -57.8613 L 85.2051 -74.3652 L 134.912 -74.3652 C 139.746 -74.3652 142.529 -71.7285 142.529 -66.6992 L 142.529 -59.6191 L 128.809 -59.6191 C 121.533 -59.6191 117.334 -55.3711 117.334 -48.1445 L 117.334 -22.2656 C 117.334 -15.0391 121.533 -10.791 128.809 -10.791 L 142.529 -10.791 L 142.529 -3.71094 C 142.529 1.36719 139.746 4.00391 134.912 4.00391 L 85.2051 4.00391 L 85.2051 -12.4512 C 96.1914 -14.3066 104.443 -23.6816 104.297 -35.2051 Z M 128.955 -18.6523 C 126.562 -18.6523 125.195 -20.0195 125.195 -22.4121 L 125.195 -47.998 C 125.195 -50.3906 126.562 -51.7578 128.955 -51.7578 L 142.529 -51.7578 L 142.529 -18.6523 Z M 33.8867 -51.7578 C 36.2793 -51.7578 37.6465 -50.3906 37.6465 -47.998 L 37.6465 -22.4121 C 37.6465 -20.0195 36.2793 -18.6523 33.8867 -18.6523 L 20.3125 -18.6523 L 20.3125 -51.7578 Z M 65.332 -35.2539 C 65.332 -42.7734 70.4102 -48.9258 77.3438 -50.6348 L 77.3438 -19.7754 C 70.5078 -21.5332 65.332 -27.832 65.332 -35.2539 Z M 97.2168 -35.2539 C 97.1191 -27.832 92.041 -21.5332 85.2051 -19.7754 L 85.2051 -50.5859 C 92.0898 -48.8281 97.2656 -42.627 97.2168 -35.2539 Z"/>
  </g>
  <g id="Light-M" transform="matrix(1 0 0 1 1073.45 1126)">
   <path d="M 26.8555 10.6445 L 132.52 10.6445 C 142.09 10.6445 146.924 5.76172 146.924 -3.66211 L 146.924 -66.6992 C 146.924 -76.0742 142.09 -80.957 132.52 -80.957 L 26.8555 -80.957 C 17.334 -80.957 12.4512 -76.1719 12.4512 -66.6992 L 12.4512 -3.66211 C 12.4512 5.81055 17.334 10.6445 26.8555 10.6445 Z M 26.9531 4.58984 C 21.4844 4.58984 18.5059 1.66016 18.5059 -3.95508 L 18.5059 -11.5234 L 32.7148 -11.5234 C 39.4531 -11.5234 43.3105 -15.3809 43.3105 -22.1191 L 43.3105 -48.2422 C 43.3105 -55.0293 39.4531 -58.8379 32.7148 -58.8379 L 18.5059 -58.8379 L 18.5059 -66.3574 C 18.5059 -72.0215 21.4844 -74.9023 26.9531 -74.9023 L 76.3672 -74.9023 L 76.3672 -57.5684 C 65.332 -56.1523 56.8359 -46.7285 56.8359 -35.1562 C 56.8359 -23.6328 65.332 -14.2578 76.3672 -12.793 L 76.3672 4.58984 Z M 101.904 -35.1562 C 101.807 -46.7285 93.5059 -56.0059 82.4219 -57.5195 L 82.4219 -74.9023 L 132.422 -74.9023 C 137.793 -74.9023 140.869 -72.0215 140.869 -66.3574 L 140.869 -58.8379 L 126.66 -58.8379 C 119.922 -58.8379 116.064 -55.0293 116.064 -48.2422 L 116.064 -22.1191 C 116.064 -15.3809 119.922 -11.5234 126.66 -11.5234 L 140.869 -11.5234 L 140.869 -3.95508 C 140.869 1.66016 137.793 4.58984 132.422 4.58984 L 82.4219 4.58984 L 82.4219 -12.793 C 93.5059 -14.2578 102.002 -23.6328 101.904 -35.1562 Z M 126.807 -17.5781 C 123.779 -17.5781 122.119 -19.2383 122.119 -22.2656 L 122.119 -48.1445 C 122.119 -51.123 123.779 -52.7832 126.807 -52.7832 L 140.869 -52.7832 L 140.869 -17.5781 Z M 32.5684 -52.7832 C 35.5957 -52.7832 37.2559 -51.123 37.2559 -48.1445 L 37.2559 -22.2656 C 37.2559 -19.2383 35.5957 -17.5781 32.5684 -17.5781 L 18.5059 -17.5781 L 18.5059 -52.7832 Z M 62.4023 -35.2051 C 62.4023 -43.6523 68.4082 -50.4883 76.3672 -51.9043 L 76.3672 -18.457 C 68.457 -19.873 62.4023 -26.8555 62.4023 -35.2051 Z M 96.3867 -35.2051 C 96.2891 -26.8555 90.2832 -19.873 82.4219 -18.457 L 82.4219 -51.9043 C 90.332 -50.4883 96.3867 -43.5547 96.3867 -35.2051 Z"/>
  </g>
  <g id="Thin-M" transform="matrix(1 0 0 1 779.005 1126)">
   <path d="M 25.6348 8.98438 L 129.199 8.98438 C 137.842 8.98438 142.383 4.39453 142.383 -4.10156 L 142.383 -66.1621 C 142.383 -74.707 137.842 -79.2969 129.199 -79.2969 L 25.6348 -79.2969 C 16.9922 -79.2969 12.4512 -74.8047 12.4512 -66.1621 L 12.4512 -4.10156 C 12.4512 4.49219 16.9922 8.98438 25.6348 8.98438 Z M 25.7324 5.37109 C 19.3848 5.37109 16.0645 2.05078 16.0645 -4.29688 L 16.0645 -12.5 L 30.957 -12.5 C 37.0605 -12.5 40.3809 -15.8203 40.3809 -21.9238 L 40.3809 -48.3887 C 40.3809 -54.4922 37.0605 -57.8125 30.957 -57.8125 L 16.0645 -57.8125 L 16.0645 -65.9668 C 16.0645 -72.3633 19.3848 -75.6836 25.7324 -75.6836 L 75.0488 -75.6836 L 75.0488 -56.9824 C 63.8184 -56.1035 55.0293 -46.7285 55.0293 -35.1562 C 55.0293 -23.5352 63.8184 -14.209 75.0488 -13.2812 L 75.0488 5.37109 Z M 98.7793 -35.1562 C 98.7305 -46.7285 90.0391 -56.0547 78.7109 -56.9824 L 78.7109 -75.6836 L 129.053 -75.6836 C 135.205 -75.6836 138.721 -72.3633 138.721 -65.9668 L 138.721 -57.8125 L 123.828 -57.8125 C 117.725 -57.8125 114.453 -54.4922 114.453 -48.3887 L 114.453 -21.9238 C 114.453 -15.8203 117.725 -12.5 123.828 -12.5 L 138.721 -12.5 L 138.721 -4.29688 C 138.721 2.05078 135.205 5.37109 129.053 5.37109 L 78.7109 5.37109 L 78.7109 -13.2812 C 89.9414 -14.209 98.7793 -23.584 98.7793 -35.1562 Z M 123.975 -16.1133 C 120.117 -16.1133 118.066 -18.1641 118.066 -22.0215 L 118.066 -48.291 C 118.066 -52.0996 120.117 -54.1992 123.975 -54.1992 L 138.721 -54.1992 L 138.721 -16.1133 Z M 30.8594 -54.1992 C 34.668 -54.1992 36.7676 -52.0996 36.7676 -48.291 L 36.7676 -22.0215 C 36.7676 -18.1641 34.668 -16.1133 30.8594 -16.1133 L 16.0645 -16.1133 L 16.0645 -54.1992 Z M 58.5449 -35.1562 C 58.5449 -44.7754 65.7715 -52.5879 75.0488 -53.5156 L 75.0488 -16.7969 C 65.7715 -17.6758 58.5449 -25.5859 58.5449 -35.1562 Z M 95.2637 -35.1562 C 95.2148 -25.5859 87.9883 -17.6758 78.7109 -16.7969 L 78.7109 -53.5156 C 87.9883 -52.5879 95.2637 -44.7266 95.2637 -35.1562 Z"/>
  </g>
  <g id="Ultralight-M" transform="matrix(1 0 0 1 483.466 1126)">
   <path d="M 25 8.1543 L 127.49 8.1543 C 135.693 8.1543 140.039 3.71094 140.039 -4.3457 L 140.039 -65.918 C 140.039 -73.9746 135.693 -78.4668 127.49 -78.4668 L 25 -78.4668 C 16.7969 -78.4668 12.4512 -74.0723 12.4512 -65.918 L 12.4512 -4.3457 C 12.4512 3.80859 16.7969 8.1543 25 8.1543 Z M 25.0977 5.76172 C 18.3594 5.76172 14.8438 2.29492 14.8438 -4.49219 L 14.8438 -12.9883 L 30.0781 -12.9883 C 35.8398 -12.9883 38.8672 -16.0156 38.8672 -21.7773 L 38.8672 -48.4863 C 38.8672 -54.248 35.8398 -57.2754 30.0781 -57.2754 L 14.8438 -57.2754 L 14.8438 -65.7715 C 14.8438 -72.5586 18.3594 -76.0742 25.0977 -76.0742 L 74.4141 -76.0742 L 74.4141 -56.6895 C 63.0859 -56.1035 54.0527 -46.7285 54.0527 -35.1562 C 54.0527 -23.5352 63.0859 -14.209 74.4141 -13.5742 L 74.4141 5.76172 Z M 97.1191 -35.1562 C 97.168 -46.7285 88.2324 -56.1035 76.8066 -56.6895 L 76.8066 -76.0742 L 127.344 -76.0742 C 133.887 -76.0742 137.646 -72.5586 137.646 -65.7715 L 137.646 -57.2754 L 122.412 -57.2754 C 116.65 -57.2754 113.574 -54.248 113.574 -48.4863 L 113.574 -21.7773 C 113.574 -16.0156 116.65 -12.9883 122.412 -12.9883 L 137.646 -12.9883 L 137.646 -4.49219 C 137.646 2.29492 133.887 5.76172 127.344 5.76172 L 76.8066 5.76172 L 76.8066 -13.5742 C 88.1348 -14.209 97.1191 -23.5352 97.1191 -35.1562 Z M 122.51 -15.3809 C 118.262 -15.3809 115.967 -17.627 115.967 -21.9238 L 115.967 -48.3398 C 115.967 -52.6367 118.262 -54.8828 122.51 -54.8828 L 137.646 -54.8828 L 137.646 -15.3809 Z M 29.9316 -54.8828 C 34.2285 -54.8828 36.4746 -52.6367 36.4746 -48.3398 L 36.4746 -21.9238 C 36.4746 -17.627 34.2285 -15.3809 29.9316 -15.3809 L 14.8438 -15.3809 L 14.8438 -54.8828 Z M 56.543 -35.1562 C 56.543 -45.3613 64.4043 -53.6621 74.4141 -54.2969 L 74.4141 -15.9668 C 64.4043 -16.6016 56.543 -24.9023 56.543 -35.1562 Z M 94.6777 -35.1562 C 94.6777 -24.9023 86.8164 -16.6016 76.8066 -15.9668 L 76.8066 -54.2969 C 86.8164 -53.6621 94.6777 -45.3613 94.6777 -35.1562 Z"/>
  </g>
  <g id="Black-S" transform="matrix(1 0 0 1 2865.14 696)">
   <path d="M 25 5.85938 L 111.523 5.85938 C 121.094 5.85938 126.758 0.195312 126.758 -9.375 L 126.758 -61.0352 C 126.758 -70.6055 121.094 -76.2695 111.523 -76.2695 L 25 -76.2695 C 15.4297 -76.2695 9.76562 -70.6055 9.76562 -61.0352 L 9.76562 -9.375 C 9.76562 0.195312 15.4297 5.85938 25 5.85938 Z M 27.2461 -8.30078 C 25 -8.30078 23.9258 -9.17969 23.9258 -11.6211 L 23.9258 -15.625 L 30.8594 -15.625 C 38.7695 -15.625 43.457 -20.3125 43.457 -28.2227 L 43.457 -42.1875 C 43.457 -50.0977 38.7695 -54.7852 30.8594 -54.7852 L 23.9258 -54.7852 L 23.9258 -58.7891 C 23.9258 -61.2305 25 -62.1094 27.2461 -62.1094 L 62.1582 -62.1094 L 62.1582 -54.541 C 53.9551 -52.0508 48.0469 -44.3848 48.0469 -35.2051 C 48.0469 -26.0254 53.9551 -18.457 62.1582 -15.918 L 62.1582 -8.30078 Z M 88.4766 -35.2051 C 88.3301 -44.3359 82.5684 -51.8555 74.3652 -54.4434 L 74.3652 -62.1094 L 109.277 -62.1094 C 111.523 -62.1094 112.598 -61.2305 112.598 -58.7891 L 112.598 -54.7852 L 105.664 -54.7852 C 97.7539 -54.7852 93.0664 -50.0977 93.0664 -42.1875 L 93.0664 -28.2227 C 93.0664 -20.3125 97.8027 -15.625 105.664 -15.625 L 112.598 -15.625 L 112.598 -11.6211 C 112.598 -9.17969 111.523 -8.30078 109.277 -8.30078 L 74.3652 -8.30078 L 74.3652 -15.918 C 82.666 -18.457 88.5742 -26.0742 88.4766 -35.2051 Z M 107.52 -27.3438 C 105.664 -27.3438 104.785 -28.0762 104.785 -30.0781 L 104.785 -40.332 C 104.785 -42.334 105.664 -43.0664 107.52 -43.0664 L 112.598 -43.0664 L 112.598 -27.3438 Z M 29.0039 -43.0664 C 30.8594 -43.0664 31.7383 -42.334 31.7383 -40.332 L 31.7383 -30.0781 C 31.7383 -28.0762 30.8594 -27.3438 29.0039 -27.3438 L 23.9258 -27.3438 L 23.9258 -43.0664 Z M 58.4961 -35.2539 C 58.4961 -38.3789 59.9121 -41.0645 62.1582 -42.8223 L 62.1582 -27.6855 C 59.9121 -29.4922 58.4961 -32.2266 58.4961 -35.2539 Z M 78.0273 -35.2539 C 77.9785 -32.2266 76.5625 -29.4922 74.3652 -27.6855 L 74.3652 -42.7734 C 76.6113 -41.0156 78.0762 -38.2812 78.0273 -35.2539 Z"/>
  </g>
  <g id="Heavy-S" transform="matrix(1 0 0 1 2569.28 696)">
   <path d="M 24.3652 5.0293 L 110.449 5.0293 C 119.727 5.0293 125.049 -0.292969 125.049 -9.52148 L 125.049 -60.8887 C 125.049 -70.1172 119.727 -75.4395 110.449 -75.4395 L 24.3652 -75.4395 C 15.0879 -75.4395 9.76562 -70.1172 9.76562 -60.8887 L 9.76562 -9.52148 C 9.76562 -0.292969 15.0879 5.0293 24.3652 5.0293 Z M 26.0742 -7.4707 C 23.5352 -7.4707 22.2656 -8.59375 22.2656 -11.3281 L 22.2656 -15.6738 L 30.0293 -15.6738 C 37.4512 -15.6738 41.8457 -20.0684 41.8457 -27.4902 L 41.8457 -42.9199 C 41.8457 -50.3418 37.4512 -54.7852 30.0293 -54.7852 L 22.2656 -54.7852 L 22.2656 -59.082 C 22.2656 -61.8164 23.5352 -62.9395 26.0742 -62.9395 L 61.9141 -62.9395 L 61.9141 -54.248 C 53.6133 -51.9531 47.6562 -44.3359 47.6562 -35.2051 C 47.6562 -26.0742 53.6133 -18.5059 61.9141 -16.2109 L 61.9141 -7.4707 Z M 87.1582 -35.2051 C 87.0117 -44.2871 81.1523 -51.7578 72.9004 -54.1504 L 72.9004 -62.9395 L 108.74 -62.9395 C 111.279 -62.9395 112.549 -61.8164 112.549 -59.082 L 112.549 -54.7852 L 104.785 -54.7852 C 97.3633 -54.7852 92.9199 -50.3418 92.9199 -42.9199 L 92.9199 -27.4902 C 92.9199 -20.0684 97.3633 -15.6738 104.785 -15.6738 L 112.549 -15.6738 L 112.549 -11.3281 C 112.549 -8.59375 111.279 -7.4707 108.74 -7.4707 L 72.9004 -7.4707 L 72.9004 -16.2109 C 81.25 -18.5547 87.2559 -26.0742 87.1582 -35.2051 Z M 106.25 -26.2695 C 104.443 -26.2695 103.564 -27.0508 103.564 -28.9551 L 103.564 -41.4551 C 103.564 -43.3594 104.443 -44.1406 106.25 -44.1406 L 112.549 -44.1406 L 112.549 -26.2695 Z M 28.5645 -44.1406 C 30.3711 -44.1406 31.25 -43.3594 31.25 -41.4551 L 31.25 -28.9551 C 31.25 -27.0508 30.3711 -26.2695 28.5645 -26.2695 L 22.2656 -26.2695 L 22.2656 -44.1406 Z M 57.1289 -35.2539 C 57.1289 -38.9648 59.0332 -42.0898 61.9141 -43.8965 L 61.9141 -26.6113 C 59.0332 -28.418 57.1289 -31.6406 57.1289 -35.2539 Z M 77.6855 -35.2539 C 77.6367 -31.6406 75.7324 -28.4668 72.9004 -26.6113 L 72.9004 -43.8477 C 75.7812 -42.041 77.7344 -38.8672 77.6855 -35.2539 Z"/>
  </g>
  <g id="Bold-S" transform="matrix(1 0 0 1 2273.52 696)">
   <path d="M 23.6328 4.05273 L 109.277 4.05273 C 118.213 4.05273 123.145 -0.830078 123.145 -9.7168 L 123.145 -60.6934 C 123.145 -69.5801 118.213 -74.4629 109.277 -74.4629 L 23.6328 -74.4629 C 14.6973 -74.4629 9.76562 -69.5801 9.76562 -60.6934 L 9.76562 -9.7168 C 9.76562 -0.830078 14.6973 4.05273 23.6328 4.05273 Z M 24.8047 -6.54297 C 21.9238 -6.54297 20.3613 -7.95898 20.3613 -10.9863 L 20.3613 -15.6738 L 29.0527 -15.6738 C 35.9863 -15.6738 40.0879 -19.7754 40.0879 -26.709 L 40.0879 -43.75 C 40.0879 -50.6348 35.9863 -54.7363 29.0527 -54.7363 L 20.3613 -54.7363 L 20.3613 -59.4238 C 20.3613 -62.4512 21.9238 -63.8672 24.8047 -63.8672 L 61.6211 -63.8672 L 61.6211 -53.9062 C 53.2715 -51.8555 47.168 -44.2871 47.168 -35.2051 C 47.168 -26.123 53.2715 -18.6523 61.6211 -16.5527 L 61.6211 -6.54297 Z M 85.6934 -35.2051 C 85.5469 -44.2871 79.5898 -51.6602 71.2402 -53.8086 L 71.2402 -63.8672 L 108.105 -63.8672 C 110.986 -63.8672 112.5 -62.4512 112.5 -59.4238 L 112.5 -54.7363 L 103.809 -54.7363 C 96.875 -54.7363 92.8223 -50.6348 92.8223 -43.75 L 92.8223 -26.709 C 92.8223 -19.7754 96.9238 -15.6738 103.809 -15.6738 L 112.5 -15.6738 L 112.5 -10.9863 C 112.5 -7.95898 110.986 -6.54297 108.105 -6.54297 L 71.2402 -6.54297 L 71.2402 -16.5527 C 79.6387 -18.6523 85.791 -26.123 85.6934 -35.2051 Z M 104.785 -25.0488 C 103.076 -25.0488 102.197 -25.8789 102.197 -27.6855 L 102.197 -42.7734 C 102.197 -44.5312 103.076 -45.3613 104.785 -45.3613 L 112.5 -45.3613 L 112.5 -25.0488 Z M 28.0762 -45.3613 C 29.7852 -45.3613 30.7129 -44.5312 30.7129 -42.7734 L 30.7129 -27.6855 C 30.7129 -25.8789 29.7852 -25.0488 28.0762 -25.0488 L 20.3613 -25.0488 L 20.3613 -45.3613 Z M 55.5664 -35.2539 C 55.5664 -39.5508 58.0078 -43.2129 61.6211 -44.9219 L 61.6211 -25.5371 C 58.0566 -27.3438 55.5664 -31.0547 55.5664 -35.2539 Z M 77.2949 -35.2539 C 77.2461 -31.0547 74.7559 -27.3438 71.2402 -25.5371 L 71.2402 -44.9219 C 74.8047 -43.1152 77.3438 -39.4531 77.2949 -35.2539 Z"/>
  </g>
  <g id="Semibold-S" transform="matrix(1 0 0 1 1977.5 696)">
   <path d="M 23.0957 3.41797 L 108.447 3.41797 C 117.188 3.41797 121.777 -1.17188 121.777 -9.81445 L 121.777 -60.5957 C 121.777 -69.2383 117.188 -73.8281 108.447 -73.8281 L 23.0957 -73.8281 C 14.4043 -73.8281 9.76562 -69.2383 9.76562 -60.5957 L 9.76562 -9.81445 C 9.76562 -1.17188 14.4043 3.41797 23.0957 3.41797 Z M 23.877 -5.9082 C 20.752 -5.9082 19.0918 -7.4707 19.0918 -10.791 L 19.0918 -15.7227 L 28.418 -15.7227 C 34.9609 -15.7227 38.8672 -19.5801 38.8672 -26.123 L 38.8672 -44.2871 C 38.8672 -50.8789 34.9609 -54.7363 28.418 -54.7363 L 19.0918 -54.7363 L 19.0918 -59.6191 C 19.0918 -62.9395 20.752 -64.502 23.877 -64.502 L 61.4258 -64.502 L 61.4258 -53.6621 C 53.0273 -51.7578 46.875 -44.2871 46.875 -35.2051 C 46.875 -26.123 53.0273 -18.7012 61.4258 -16.7969 L 61.4258 -5.9082 Z M 84.668 -35.2051 C 84.5215 -44.2383 78.5156 -51.5625 70.1172 -53.5645 L 70.1172 -64.502 L 107.666 -64.502 C 110.791 -64.502 112.5 -62.9395 112.5 -59.6191 L 112.5 -54.7363 L 103.125 -54.7363 C 96.582 -54.7363 92.7246 -50.8789 92.7246 -44.2871 L 92.7246 -26.123 C 92.7246 -19.5801 96.582 -15.7227 103.125 -15.7227 L 112.5 -15.7227 L 112.5 -10.791 C 112.5 -7.4707 110.791 -5.9082 107.666 -5.9082 L 70.1172 -5.9082 L 70.1172 -16.7969 C 78.5645 -18.75 84.7656 -26.1719 84.668 -35.2051 Z M 103.809 -24.2188 C 102.148 -24.2188 101.221 -25.0977 101.221 -26.8066 L 101.221 -43.6523 C 101.221 -45.3613 102.148 -46.1914 103.809 -46.1914 L 112.5 -46.1914 L 112.5 -24.2188 Z M 27.7832 -46.1914 C 29.4434 -46.1914 30.3223 -45.3613 30.3223 -43.6523 L 30.3223 -26.8066 C 30.3223 -25.0977 29.4434 -24.2188 27.7832 -24.2188 L 19.0918 -24.2188 L 19.0918 -46.1914 Z M 54.4922 -35.2539 C 54.4922 -39.9902 57.3242 -43.9453 61.4258 -45.6055 L 61.4258 -24.8535 C 57.373 -26.6113 54.4922 -30.6152 54.4922 -35.2539 Z M 77.0508 -35.2539 C 76.9531 -30.6152 74.1211 -26.6113 70.1172 -24.8535 L 70.1172 -45.5566 C 74.1699 -43.8477 77.0508 -39.8926 77.0508 -35.2539 Z"/>
  </g>
  <g id="Medium-S" transform="matrix(1 0 0 1 1681.27 696)">
   <path d="M 22.7051 2.88086 L 107.861 2.88086 C 116.406 2.88086 120.801 -1.46484 120.801 -9.91211 L 120.801 -60.498 C 120.801 -68.9453 116.406 -73.291 107.861 -73.291 L 22.7051 -73.291 C 14.209 -73.291 9.76562 -68.9453 9.76562 -60.498 L 9.76562 -9.91211 C 9.76562 -1.46484 14.209 2.88086 22.7051 2.88086 Z M 23.1934 -5.41992 C 19.9219 -5.41992 18.0664 -7.12891 18.0664 -10.5957 L 18.0664 -15.7227 L 27.9297 -15.7227 C 34.2285 -15.7227 37.9395 -19.4336 37.9395 -25.7324 L 37.9395 -44.7266 C 37.9395 -51.0254 34.2285 -54.7363 27.9297 -54.7363 L 18.0664 -54.7363 L 18.0664 -59.8145 C 18.0664 -63.2812 19.9219 -64.9902 23.1934 -64.9902 L 61.2793 -64.9902 L 61.2793 -53.4668 C 52.832 -51.709 46.6309 -44.2383 46.6309 -35.2051 C 46.6309 -26.1719 52.832 -18.75 61.2793 -16.9922 L 61.2793 -5.41992 Z M 83.8867 -35.2051 C 83.7402 -44.2383 77.6855 -51.5137 69.2383 -53.3691 L 69.2383 -64.9902 L 107.373 -64.9902 C 110.645 -64.9902 112.451 -63.2812 112.451 -59.8145 L 112.451 -54.7363 L 102.637 -54.7363 C 96.3379 -54.7363 92.627 -51.0254 92.627 -44.7266 L 92.627 -25.7324 C 92.627 -19.4336 96.3379 -15.7227 102.637 -15.7227 L 112.451 -15.7227 L 112.451 -10.5957 C 112.451 -7.12891 110.645 -5.41992 107.373 -5.41992 L 69.2383 -5.41992 L 69.2383 -16.9922 C 77.7344 -18.7988 84.0332 -26.1719 83.8867 -35.2051 Z M 103.027 -23.584 C 101.416 -23.584 100.488 -24.5117 100.488 -26.123 L 100.488 -44.2871 C 100.488 -45.9473 101.416 -46.8262 103.027 -46.8262 L 112.451 -46.8262 L 112.451 -23.584 Z M 27.5391 -46.8262 C 29.1504 -46.8262 30.0293 -45.9473 30.0293 -44.2871 L 30.0293 -26.123 C 30.0293 -24.5117 29.1504 -23.584 27.5391 -23.584 L 18.0664 -23.584 L 18.0664 -46.8262 Z M 53.6621 -35.2539 C 53.6621 -40.2832 56.8359 -44.4824 61.2793 -46.0449 L 61.2793 -24.4141 C 56.8848 -26.0254 53.6621 -30.3223 53.6621 -35.2539 Z M 76.8555 -35.2539 C 76.7578 -30.3223 73.6328 -26.0254 69.2383 -24.4141 L 69.2383 -46.0449 C 73.6816 -44.3848 76.8555 -40.1855 76.8555 -35.2539 Z"/>
  </g>
  <g id="Regular-S" transform="matrix(1 0 0 1 1385.22 696)">
   <path d="M 22.2168 2.24609 L 107.031 2.24609 C 115.381 2.24609 119.482 -1.80664 119.482 -10.0098 L 119.482 -60.4004 C 119.482 -68.6035 115.381 -72.6562 107.031 -72.6562 L 22.2168 -72.6562 C 13.916 -72.6562 9.76562 -68.6035 9.76562 -60.4004 L 9.76562 -10.0098 C 9.76562 -1.80664 13.916 2.24609 22.2168 2.24609 Z M 22.3145 -4.78516 C 18.7988 -4.78516 16.7969 -6.68945 16.7969 -10.4004 L 16.7969 -15.7227 L 27.2949 -15.7227 C 33.2031 -15.7227 36.7188 -19.2383 36.7188 -25.1465 L 36.7188 -45.2637 C 36.7188 -51.2207 33.2031 -54.7363 27.2949 -54.7363 L 16.7969 -54.7363 L 16.7969 -60.0098 C 16.7969 -63.7207 18.7988 -65.625 22.3145 -65.625 L 61.084 -65.625 L 61.084 -53.1738 C 52.6367 -51.6602 46.3379 -44.2383 46.3379 -35.2051 C 46.3379 -26.1719 52.6367 -18.8477 61.084 -17.2363 L 61.084 -4.78516 Z M 82.8613 -35.2051 C 82.7637 -44.1895 76.6113 -51.4648 68.1152 -53.125 L 68.1152 -65.625 L 106.934 -65.625 C 110.449 -65.625 112.451 -63.7207 112.451 -60.0098 L 112.451 -54.7363 L 101.953 -54.7363 C 96.0449 -54.7363 92.5293 -51.2207 92.5293 -45.2637 L 92.5293 -25.1465 C 92.5293 -19.2383 96.0449 -15.7227 101.953 -15.7227 L 112.451 -15.7227 L 112.451 -10.4004 C 112.451 -6.68945 110.449 -4.78516 106.934 -4.78516 L 68.1152 -4.78516 L 68.1152 -17.2363 C 76.6602 -18.8965 83.0078 -26.2207 82.8613 -35.2051 Z M 102.051 -22.8027 C 100.488 -22.8027 99.5605 -23.6816 99.5605 -25.2441 L 99.5605 -45.166 C 99.5605 -46.7285 100.488 -47.6562 102.051 -47.6562 L 112.451 -47.6562 L 112.451 -22.8027 Z M 27.1973 -47.6562 C 28.7598 -47.6562 29.6875 -46.7285 29.6875 -45.166 L 29.6875 -25.2441 C 29.6875 -23.6816 28.7598 -22.8027 27.1973 -22.8027 L 16.7969 -22.8027 L 16.7969 -47.6562 Z M 52.6367 -35.2539 C 52.6367 -40.6738 56.1523 -45.166 61.084 -46.6309 L 61.084 -23.8281 C 56.2012 -25.3418 52.6367 -29.9316 52.6367 -35.2539 Z M 76.5625 -35.2539 C 76.5137 -29.9316 72.9492 -25.3418 68.1152 -23.8281 L 68.1152 -46.6309 C 72.998 -45.1172 76.6113 -40.5762 76.5625 -35.2539 Z"/>
  </g>
  <g id="Light-S" transform="matrix(1 0 0 1 1090.02 696)">
   <path d="M 21.3867 1.17188 L 104.785 1.17188 C 112.549 1.17188 116.455 -2.73438 116.455 -10.3516 L 116.455 -60.0586 C 116.455 -67.627 112.549 -71.5332 104.785 -71.5332 L 21.3867 -71.5332 C 13.6719 -71.5332 9.76562 -67.6758 9.76562 -60.0586 L 9.76562 -10.3516 C 9.76562 -2.68555 13.6719 1.17188 21.3867 1.17188 Z M 21.4844 -4.24805 C 17.4316 -4.24805 15.1855 -6.44531 15.1855 -10.6445 L 15.1855 -16.4062 L 26.123 -16.4062 C 31.6406 -16.4062 34.7656 -19.5312 34.7656 -25 L 34.7656 -45.3613 C 34.7656 -50.8789 31.6406 -54.0039 26.123 -54.0039 L 15.1855 -54.0039 L 15.1855 -59.7656 C 15.1855 -63.9648 17.4316 -66.1133 21.4844 -66.1133 L 60.2051 -66.1133 L 60.2051 -52.8809 C 51.6113 -51.6113 45.0684 -44.2383 45.0684 -35.2051 C 45.0684 -26.123 51.6113 -18.7988 60.2051 -17.5293 L 60.2051 -4.24805 Z M 80.7617 -35.2051 C 80.6641 -44.2383 74.2676 -51.5137 65.625 -52.832 L 65.625 -66.1133 L 104.688 -66.1133 C 108.691 -66.1133 110.986 -63.9648 110.986 -59.7656 L 110.986 -54.0039 L 100.049 -54.0039 C 94.5801 -54.0039 91.4551 -50.8789 91.4551 -45.3613 L 91.4551 -25 C 91.4551 -19.5312 94.5801 -16.4062 100.049 -16.4062 L 110.986 -16.4062 L 110.986 -10.6445 C 110.986 -6.44531 108.691 -4.24805 104.688 -4.24805 L 65.625 -4.24805 L 65.625 -17.5293 C 74.2676 -18.8477 80.8594 -26.1719 80.7617 -35.2051 Z M 100.146 -21.8262 C 98.0469 -21.8262 96.875 -22.998 96.875 -25.0977 L 96.875 -45.2637 C 96.875 -47.4121 98.0469 -48.584 100.146 -48.584 L 110.986 -48.584 L 110.986 -21.8262 Z M 26.0254 -48.584 C 28.1738 -48.584 29.3457 -47.4121 29.3457 -45.2637 L 29.3457 -25.0977 C 29.3457 -22.998 28.1738 -21.8262 26.0254 -21.8262 L 15.1855 -21.8262 L 15.1855 -48.584 Z M 50.0488 -35.2051 C 50.0488 -41.4551 54.3945 -46.582 60.2051 -47.8027 L 60.2051 -22.5586 C 54.3945 -23.8281 50.0488 -29.0527 50.0488 -35.2051 Z M 75.8301 -35.2051 C 75.7812 -29.0527 71.4355 -23.8281 65.625 -22.5586 L 65.625 -47.8027 C 71.4355 -46.5332 75.8789 -41.4062 75.8301 -35.2051 Z"/>
  </g>
  <g id="Thin-S" transform="matrix(1 0 0 1 795.338 696)">
   <path d="M 20.3125 -0.244141 L 101.855 -0.244141 C 108.789 -0.244141 112.402 -3.90625 112.402 -10.7422 L 112.402 -59.5703 C 112.402 -66.4062 108.789 -70.0684 101.855 -70.0684 L 20.3125 -70.0684 C 13.3789 -70.0684 9.76562 -66.5039 9.76562 -59.5703 L 9.76562 -10.7422 C 9.76562 -3.85742 13.3789 -0.244141 20.3125 -0.244141 Z M 20.4102 -3.56445 C 15.625 -3.56445 13.0859 -6.10352 13.0859 -10.9375 L 13.0859 -17.2363 L 24.6094 -17.2363 C 29.4922 -17.2363 32.1777 -19.9219 32.1777 -24.8535 L 32.1777 -45.5078 C 32.1777 -50.4395 29.4922 -53.125 24.6094 -53.125 L 13.0859 -53.125 L 13.0859 -59.4238 C 13.0859 -64.2578 15.625 -66.748 20.4102 -66.748 L 59.082 -66.748 L 59.082 -52.3926 C 50.293 -51.6113 43.457 -44.2383 43.457 -35.1562 C 43.457 -26.0742 50.293 -18.75 59.082 -17.9688 L 59.082 -3.56445 Z M 77.9785 -35.1562 C 77.9297 -44.2383 71.1914 -51.5625 62.3535 -52.3926 L 62.3535 -66.748 L 101.758 -66.748 C 106.445 -66.748 109.131 -64.2578 109.131 -59.4238 L 109.131 -53.125 L 97.5586 -53.125 C 92.6758 -53.125 89.9902 -50.4395 89.9902 -45.5078 L 89.9902 -24.8535 C 89.9902 -19.9219 92.6758 -17.2363 97.5586 -17.2363 L 109.131 -17.2363 L 109.131 -10.9375 C 109.131 -6.10352 106.445 -3.56445 101.758 -3.56445 L 62.3535 -3.56445 L 62.3535 -17.9688 C 71.1426 -18.7988 78.0273 -26.123 77.9785 -35.1562 Z M 97.6562 -20.5566 C 94.8242 -20.5566 93.2617 -22.0703 93.2617 -24.9512 L 93.2617 -45.4102 C 93.2617 -48.291 94.8242 -49.8047 97.6562 -49.8047 L 109.131 -49.8047 L 109.131 -20.5566 Z M 24.5117 -49.8047 C 27.3438 -49.8047 28.9062 -48.291 28.9062 -45.4102 L 28.9062 -24.9512 C 28.9062 -22.0703 27.3438 -20.5566 24.5117 -20.5566 L 13.0859 -20.5566 L 13.0859 -49.8047 Z M 46.582 -35.2051 C 46.582 -42.4805 52.0508 -48.4375 59.082 -49.2676 L 59.082 -21.0938 C 52.0508 -21.9238 46.582 -27.8809 46.582 -35.2051 Z M 74.8535 -35.2051 C 74.8047 -27.8809 69.3848 -21.9238 62.3535 -21.0938 L 62.3535 -49.2676 C 69.3848 -48.4375 74.8535 -42.4805 74.8535 -35.2051 Z"/>
  </g>
  <g id="Ultralight-S" transform="matrix(1 0 0 1 499.653 696)">
   <path d="M 19.7754 -1.02539 L 100.342 -1.02539 C 106.885 -1.02539 110.352 -4.54102 110.352 -10.9863 L 110.352 -59.3262 C 110.352 -65.7715 106.885 -69.3359 100.342 -69.3359 L 19.7754 -69.3359 C 13.2324 -69.3359 9.76562 -65.8691 9.76562 -59.3262 L 9.76562 -10.9863 C 9.76562 -4.44336 13.2324 -1.02539 19.7754 -1.02539 Z M 19.873 -3.22266 C 14.6484 -3.22266 11.9629 -5.9082 11.9629 -11.084 L 11.9629 -17.6758 L 23.8281 -17.6758 C 28.418 -17.6758 30.8594 -20.1172 30.8594 -24.707 L 30.8594 -45.6055 C 30.8594 -50.1953 28.418 -52.6367 23.8281 -52.6367 L 11.9629 -52.6367 L 11.9629 -59.2285 C 11.9629 -64.4043 14.6484 -67.0898 19.873 -67.0898 L 58.4961 -67.0898 L 58.4961 -52.1484 C 49.6094 -51.5625 42.627 -44.2383 42.627 -35.1562 C 42.627 -26.0742 49.6094 -18.75 58.4961 -18.1641 L 58.4961 -3.22266 Z M 76.5625 -35.1562 C 76.5625 -44.2383 69.6289 -51.5625 60.6934 -52.1484 L 60.6934 -67.0898 L 100.244 -67.0898 C 105.273 -67.0898 108.154 -64.4043 108.154 -59.2285 L 108.154 -52.6367 L 96.2891 -52.6367 C 91.6992 -52.6367 89.2578 -50.1953 89.2578 -45.6055 L 89.2578 -24.707 C 89.2578 -20.1172 91.6992 -17.6758 96.2891 -17.6758 L 108.154 -17.6758 L 108.154 -11.084 C 108.154 -5.9082 105.273 -3.22266 100.244 -3.22266 L 60.6934 -3.22266 L 60.6934 -18.1641 C 69.5312 -18.75 76.5625 -26.0742 76.5625 -35.1562 Z M 96.3867 -19.873 C 93.1641 -19.873 91.4551 -21.582 91.4551 -24.8047 L 91.4551 -45.5078 C 91.4551 -48.7305 93.1641 -50.4395 96.3867 -50.4395 L 108.154 -50.4395 L 108.154 -19.873 Z M 23.7305 -50.4395 C 26.9531 -50.4395 28.6621 -48.7305 28.6621 -45.5078 L 28.6621 -24.8047 C 28.6621 -21.582 26.9531 -19.873 23.7305 -19.873 L 11.9629 -19.873 L 11.9629 -50.4395 Z M 74.3164 -35.1562 C 74.3164 -27.3438 68.3594 -20.9473 60.6934 -20.3613 L 60.6934 -49.9512 C 68.3594 -49.4141 74.3164 -43.0176 74.3164 -35.1562 Z M 44.8242 -35.1562 C 44.8242 -43.0176 50.8301 -49.4141 58.4961 -49.9512 L 58.4961 -20.3613 C 50.8301 -20.9473 44.8242 -27.3438 44.8242 -35.1562 Z"/>
  </g>
 </g>
</svg>
