<?xml version="1.0" encoding="UTF-8"?>
<!--Generator: Apple Native CoreSVG 123-->
<!DOCTYPE svg
PUBLIC "-//W3C//DTD SVG 1.1//EN"
       "http://www.w3.org/Graphics/SVG/1.1/DTD/svg11.dtd">
<svg version="1.1" xmlns="http://www.w3.org/2000/svg" xmlns:xlink="http://www.w3.org/1999/xlink" width="3300" height="2200">
 <!--glyph: "uni100751.medium", point size: 100.000000, font version: "Version 15.0d7e11", template writer version: "5"-->
 <g id="Notes">
  <rect height="2200" id="artboard" style="fill:white;opacity:1" width="3300" x="0" y="0"/>
  <line id="" style="fill:none;stroke:black;opacity:1;stroke-width:0.5;" x1="263" x2="3036" y1="292" y2="292"/>
  <text style="stroke:none;fill:black;font-family:-apple-system,&quot;SF Pro Display&quot;,&quot;SF Pro Text&quot;,Helvetica,sans-serif;font-weight:bold;" transform="matrix(1 0 0 1 263 322)">Weight/Scale Variations</text>
  <text style="stroke:none;fill:black;font-family:-apple-system,&quot;SF Pro Display&quot;,&quot;SF Pro Text&quot;,Helvetica,sans-serif;text-anchor:middle;" transform="matrix(1 0 0 1 559.711 322)">Ultralight</text>
  <text style="stroke:none;fill:black;font-family:-apple-system,&quot;SF Pro Display&quot;,&quot;SF Pro Text&quot;,Helvetica,sans-serif;text-anchor:middle;" transform="matrix(1 0 0 1 856.422 322)">Thin</text>
  <text style="stroke:none;fill:black;font-family:-apple-system,&quot;SF Pro Display&quot;,&quot;SF Pro Text&quot;,Helvetica,sans-serif;text-anchor:middle;" transform="matrix(1 0 0 1 1153.13 322)">Light</text>
  <text style="stroke:none;fill:black;font-family:-apple-system,&quot;SF Pro Display&quot;,&quot;SF Pro Text&quot;,Helvetica,sans-serif;text-anchor:middle;" transform="matrix(1 0 0 1 1449.84 322)">Regular</text>
  <text style="stroke:none;fill:black;font-family:-apple-system,&quot;SF Pro Display&quot;,&quot;SF Pro Text&quot;,Helvetica,sans-serif;text-anchor:middle;" transform="matrix(1 0 0 1 1746.56 322)">Medium</text>
  <text style="stroke:none;fill:black;font-family:-apple-system,&quot;SF Pro Display&quot;,&quot;SF Pro Text&quot;,Helvetica,sans-serif;text-anchor:middle;" transform="matrix(1 0 0 1 2043.27 322)">Semibold</text>
  <text style="stroke:none;fill:black;font-family:-apple-system,&quot;SF Pro Display&quot;,&quot;SF Pro Text&quot;,Helvetica,sans-serif;text-anchor:middle;" transform="matrix(1 0 0 1 2339.98 322)">Bold</text>
  <text style="stroke:none;fill:black;font-family:-apple-system,&quot;SF Pro Display&quot;,&quot;SF Pro Text&quot;,Helvetica,sans-serif;text-anchor:middle;" transform="matrix(1 0 0 1 2636.69 322)">Heavy</text>
  <text style="stroke:none;fill:black;font-family:-apple-system,&quot;SF Pro Display&quot;,&quot;SF Pro Text&quot;,Helvetica,sans-serif;text-anchor:middle;" transform="matrix(1 0 0 1 2933.4 322)">Black</text>
  <line id="" style="fill:none;stroke:black;opacity:1;stroke-width:0.5;" x1="263" x2="3036" y1="1903" y2="1903"/>
  <g id="" transform="matrix(1 0 0 1 263 1933)">
   <path d="M 9.24805 0.830078 C 13.5547 0.830078 17.1387 -2.74414 17.1387 -7.05078 C 17.1387 -11.3574 13.5449 -14.9316 9.23828 -14.9316 C 4.94141 -14.9316 1.36719 -11.3574 1.36719 -7.05078 C 1.36719 -2.74414 4.95117 0.830078 9.24805 0.830078 Z M 9.24805 -0.654297 C 5.70312 -0.654297 2.87109 -3.49609 2.87109 -7.05078 C 2.87109 -10.6055 5.69336 -13.4473 9.23828 -13.4473 C 12.793 -13.4473 15.6348 -10.6055 15.6445 -7.05078 C 15.6543 -3.49609 12.8027 -0.654297 9.24805 -0.654297 Z M 9.22852 -3.42773 C 9.69727 -3.42773 9.9707 -3.74023 9.9707 -4.25781 L 9.9707 -6.31836 L 12.1973 -6.31836 C 12.6953 -6.31836 13.0371 -6.57227 13.0371 -7.04102 C 13.0371 -7.51953 12.7148 -7.7832 12.1973 -7.7832 L 9.9707 -7.7832 L 9.9707 -10.0098 C 9.9707 -10.5273 9.69727 -10.8496 9.22852 -10.8496 C 8.75977 -10.8496 8.50586 -10.5078 8.50586 -10.0098 L 8.50586 -7.7832 L 6.29883 -7.7832 C 5.78125 -7.7832 5.44922 -7.51953 5.44922 -7.04102 C 5.44922 -6.57227 5.80078 -6.31836 6.29883 -6.31836 L 8.50586 -6.31836 L 8.50586 -4.25781 C 8.50586 -3.75977 8.75977 -3.42773 9.22852 -3.42773 Z"/>
  </g>
  <g id="" transform="matrix(1 0 0 1 281.506 1933)">
   <path d="M 11.709 2.91016 C 17.1582 2.91016 21.6699 -1.60156 21.6699 -7.05078 C 21.6699 -12.4902 17.1484 -17.0117 11.6992 -17.0117 C 6.25977 -17.0117 1.74805 -12.4902 1.74805 -7.05078 C 1.74805 -1.60156 6.26953 2.91016 11.709 2.91016 Z M 11.709 1.25 C 7.09961 1.25 3.41797 -2.44141 3.41797 -7.05078 C 3.41797 -11.6504 7.08984 -15.3516 11.6992 -15.3516 C 16.3086 -15.3516 20 -11.6504 20.0098 -7.05078 C 20.0195 -2.44141 16.3184 1.25 11.709 1.25 Z M 11.6895 -2.41211 C 12.207 -2.41211 12.5195 -2.77344 12.5195 -3.33984 L 12.5195 -6.23047 L 15.5762 -6.23047 C 16.123 -6.23047 16.5039 -6.51367 16.5039 -7.03125 C 16.5039 -7.55859 16.1426 -7.86133 15.5762 -7.86133 L 12.5195 -7.86133 L 12.5195 -10.9277 C 12.5195 -11.5039 12.207 -11.8555 11.6895 -11.8555 C 11.1719 -11.8555 10.8789 -11.4844 10.8789 -10.9277 L 10.8789 -7.86133 L 7.83203 -7.86133 C 7.26562 -7.86133 6.89453 -7.55859 6.89453 -7.03125 C 6.89453 -6.51367 7.28516 -6.23047 7.83203 -6.23047 L 10.8789 -6.23047 L 10.8789 -3.33984 C 10.8789 -2.79297 11.1719 -2.41211 11.6895 -2.41211 Z"/>
  </g>
  <g id="" transform="matrix(1 0 0 1 304.924 1933)">
   <path d="M 14.9707 5.67383 C 21.9336 5.67383 27.6953 -0.078125 27.6953 -7.04102 C 27.6953 -14.0039 21.9238 -19.7559 14.9609 -19.7559 C 8.00781 -19.7559 2.25586 -14.0039 2.25586 -7.04102 C 2.25586 -0.078125 8.01758 5.67383 14.9707 5.67383 Z M 14.9707 3.85742 C 8.93555 3.85742 4.08203 -1.00586 4.08203 -7.04102 C 4.08203 -13.0762 8.92578 -17.9395 14.9609 -17.9395 C 21.0059 -17.9395 25.8594 -13.0762 25.8691 -7.04102 C 25.8789 -1.00586 21.0156 3.85742 14.9707 3.85742 Z M 14.9512 -1.06445 C 15.5176 -1.06445 15.8691 -1.45508 15.8691 -2.06055 L 15.8691 -6.13281 L 20.1074 -6.13281 C 20.6934 -6.13281 21.1133 -6.46484 21.1133 -7.02148 C 21.1133 -7.59766 20.7227 -7.93945 20.1074 -7.93945 L 15.8691 -7.93945 L 15.8691 -12.1875 C 15.8691 -12.8027 15.5176 -13.1934 14.9512 -13.1934 C 14.3848 -13.1934 14.0625 -12.7832 14.0625 -12.1875 L 14.0625 -7.93945 L 9.83398 -7.93945 C 9.21875 -7.93945 8.80859 -7.59766 8.80859 -7.02148 C 8.80859 -6.46484 9.23828 -6.13281 9.83398 -6.13281 L 14.0625 -6.13281 L 14.0625 -2.06055 C 14.0625 -1.47461 14.3848 -1.06445 14.9512 -1.06445 Z"/>
  </g>
  <text style="stroke:none;fill:black;font-family:-apple-system,&quot;SF Pro Display&quot;,&quot;SF Pro Text&quot;,Helvetica,sans-serif;font-weight:bold;" transform="matrix(1 0 0 1 263 1953)">Design Variations</text>
  <text style="stroke:none;fill:black;font-family:-apple-system,&quot;SF Pro Display&quot;,&quot;SF Pro Text&quot;,Helvetica,sans-serif;" transform="matrix(1 0 0 1 263 1971)">Symbols are supported in up to nine weights and three scales.</text>
  <text style="stroke:none;fill:black;font-family:-apple-system,&quot;SF Pro Display&quot;,&quot;SF Pro Text&quot;,Helvetica,sans-serif;" transform="matrix(1 0 0 1 263 1989)">For optimal layout with text and other symbols, vertically align</text>
  <text style="stroke:none;fill:black;font-family:-apple-system,&quot;SF Pro Display&quot;,&quot;SF Pro Text&quot;,Helvetica,sans-serif;" transform="matrix(1 0 0 1 263 2007)">symbols with the adjacent text.</text>
  <rect height="14" id="" style="fill:#00AEEF;stroke:none;opacity:0.4;" width="3" x="776" y="1919"/>
  <g id="" transform="matrix(1 0 0 1 779 1933)">
   <path d="M 10.5273 0 L 12.373 0 L 7.17773 -14.0918 L 5.43945 -14.0918 L 0.244141 0 L 2.08984 0 L 3.50586 -4.0332 L 9.11133 -4.0332 Z M 6.2793 -11.9531 L 6.33789 -11.9531 L 8.59375 -5.52734 L 4.02344 -5.52734 Z"/>
  </g>
  <rect height="14" id="" style="fill:#00AEEF;stroke:none;opacity:0.4;" width="3" x="791.617" y="1919"/>
  <text style="stroke:none;fill:black;font-family:-apple-system,&quot;SF Pro Display&quot;,&quot;SF Pro Text&quot;,Helvetica,sans-serif;font-weight:bold;" transform="matrix(1 0 0 1 776 1953)">Margins</text>
  <text style="stroke:none;fill:black;font-family:-apple-system,&quot;SF Pro Display&quot;,&quot;SF Pro Text&quot;,Helvetica,sans-serif;" transform="matrix(1 0 0 1 776 1971)">Leading and trailing margins on the left and right side of each symbol</text>
  <text style="stroke:none;fill:black;font-family:-apple-system,&quot;SF Pro Display&quot;,&quot;SF Pro Text&quot;,Helvetica,sans-serif;" transform="matrix(1 0 0 1 776 1989)">can be adjusted by modifying the width of the blue rectangles.</text>
  <text style="stroke:none;fill:black;font-family:-apple-system,&quot;SF Pro Display&quot;,&quot;SF Pro Text&quot;,Helvetica,sans-serif;" transform="matrix(1 0 0 1 776 2007)">Modifications are automatically applied proportionally to all</text>
  <text style="stroke:none;fill:black;font-family:-apple-system,&quot;SF Pro Display&quot;,&quot;SF Pro Text&quot;,Helvetica,sans-serif;" transform="matrix(1 0 0 1 776 2025)">scales and weights.</text>
  <g id="" transform="matrix(1 0 0 1 1289 1933)">
   <path d="M 2.83203 3.11523 L 4.375 4.6582 C 5.22461 5.48828 6.19141 5.41992 7.06055 4.46289 L 17.2754 -6.66016 C 17.7051 -6.36719 18.0957 -6.37695 18.5645 -6.47461 L 19.6094 -6.68945 L 20.3027 -5.99609 L 20.2539 -5.47852 C 20.1855 -4.95117 20.3516 -4.53125 20.8496 -4.0332 L 21.6602 -3.22266 C 22.168 -2.71484 22.8223 -2.68555 23.3008 -3.16406 L 26.5527 -6.41602 C 27.0312 -6.89453 27.0117 -7.54883 26.5039 -8.05664 L 25.6836 -8.87695 C 25.1855 -9.375 24.7754 -9.55078 24.2383 -9.47266 L 23.7109 -9.41406 L 23.0566 -10.0781 L 23.3398 -11.2207 C 23.4863 -11.7871 23.3398 -12.2559 22.7148 -12.8613 L 20.3027 -15.2539 C 16.7578 -18.7793 12.2266 -18.6719 9.11133 -15.5371 C 8.69141 -15.1074 8.64258 -14.5215 8.91602 -14.0918 C 9.15039 -13.7207 9.62891 -13.4961 10.2734 -13.6621 C 11.7871 -14.043 13.3008 -13.9258 14.7852 -12.9199 L 14.1602 -11.3379 C 13.9258 -10.752 13.9453 -10.2734 14.1797 -9.83398 L 3.01758 0.439453 C 2.08008 1.30859 1.97266 2.25586 2.83203 3.11523 Z M 10.6738 -15.1465 C 13.3398 -17.1387 16.6504 -16.8262 19.0527 -14.4141 L 21.6797 -11.8066 C 21.9141 -11.5723 21.9434 -11.3867 21.8848 -11.0938 L 21.5039 -9.53125 L 23.0762 -7.95898 L 24.043 -8.04688 C 24.3262 -8.07617 24.4141 -8.05664 24.6387 -7.83203 L 25.2637 -7.20703 L 22.5098 -4.46289 L 21.8848 -5.07812 C 21.6602 -5.30273 21.6406 -5.40039 21.6699 -5.68359 L 21.7578 -6.64062 L 20.1953 -8.20312 L 18.5742 -7.89062 C 18.291 -7.83203 18.1445 -7.83203 17.9102 -8.07617 L 15.7324 -10.2539 C 15.5078 -10.4883 15.4785 -10.625 15.6055 -10.9473 L 16.5527 -13.2227 C 14.9512 -14.7559 12.8418 -15.6055 10.8008 -14.9512 C 10.7129 -14.9219 10.6445 -14.9414 10.6152 -14.9805 C 10.5859 -15.0293 10.5859 -15.0781 10.6738 -15.1465 Z M 4.10156 2.41211 C 3.61328 1.91406 3.78906 1.61133 4.12109 1.30859 L 15.0781 -8.80859 L 16.3086 -7.57812 L 6.15234 3.34961 C 5.84961 3.68164 5.46875 3.7793 5.06836 3.37891 Z"/>
  </g>
  <text style="stroke:none;fill:black;font-family:-apple-system,&quot;SF Pro Display&quot;,&quot;SF Pro Text&quot;,Helvetica,sans-serif;font-weight:bold;" transform="matrix(1 0 0 1 1289 1953)">Exporting</text>
  <text style="stroke:none;fill:black;font-family:-apple-system,&quot;SF Pro Display&quot;,&quot;SF Pro Text&quot;,Helvetica,sans-serif;" transform="matrix(1 0 0 1 1289 1971)">Symbols should be outlined when exporting to ensure the</text>
  <text style="stroke:none;fill:black;font-family:-apple-system,&quot;SF Pro Display&quot;,&quot;SF Pro Text&quot;,Helvetica,sans-serif;" transform="matrix(1 0 0 1 1289 1989)">design is preserved when submitting to Xcode.</text>
  <text id="template-version" style="stroke:none;fill:black;font-family:-apple-system,&quot;SF Pro Display&quot;,&quot;SF Pro Text&quot;,Helvetica,sans-serif;text-anchor:end;" transform="matrix(1 0 0 1 3036 1933)">Template v.1.0</text>
  <text style="stroke:none;fill:black;font-family:-apple-system,&quot;SF Pro Display&quot;,&quot;SF Pro Text&quot;,Helvetica,sans-serif;text-anchor:end;" transform="matrix(1 0 0 1 3036 1951)">Generated from sportscourt.fill</text>
  <text style="stroke:none;fill:black;font-family:-apple-system,&quot;SF Pro Display&quot;,&quot;SF Pro Text&quot;,Helvetica,sans-serif;text-anchor:end;" transform="matrix(1 0 0 1 3036 1969)">Typeset at 100 points</text>
  <text style="stroke:none;fill:black;font-family:-apple-system,&quot;SF Pro Display&quot;,&quot;SF Pro Text&quot;,Helvetica,sans-serif;" transform="matrix(1 0 0 1 263 726)">Small</text>
  <text style="stroke:none;fill:black;font-family:-apple-system,&quot;SF Pro Display&quot;,&quot;SF Pro Text&quot;,Helvetica,sans-serif;" transform="matrix(1 0 0 1 263 1156)">Medium</text>
  <text style="stroke:none;fill:black;font-family:-apple-system,&quot;SF Pro Display&quot;,&quot;SF Pro Text&quot;,Helvetica,sans-serif;" transform="matrix(1 0 0 1 263 1586)">Large</text>
 </g>
 <g id="Guides">
  <g id="H-reference" style="fill:#27AAE1;stroke:none;" transform="matrix(1 0 0 1 339 696)">
   <path d="M 54.9316 0 L 57.666 0 L 30.5664 -70.459 L 28.0762 -70.459 L 0.976562 0 L 3.66211 0 L 12.9395 -24.4629 L 45.7031 -24.4629 Z M 29.1992 -67.0898 L 29.4434 -67.0898 L 44.8242 -26.709 L 13.8184 -26.709 Z"/>
  </g>
  <line id="Baseline-S" style="fill:none;stroke:#27AAE1;opacity:1;stroke-width:0.577;" x1="263" x2="3036" y1="696" y2="696"/>
  <line id="Capline-S" style="fill:none;stroke:#27AAE1;opacity:1;stroke-width:0.577;" x1="263" x2="3036" y1="625.541" y2="625.541"/>
  <g id="H-reference" style="fill:#27AAE1;stroke:none;" transform="matrix(1 0 0 1 339 1126)">
   <path d="M 54.9316 0 L 57.666 0 L 30.5664 -70.459 L 28.0762 -70.459 L 0.976562 0 L 3.66211 0 L 12.9395 -24.4629 L 45.7031 -24.4629 Z M 29.1992 -67.0898 L 29.4434 -67.0898 L 44.8242 -26.709 L 13.8184 -26.709 Z"/>
  </g>
  <line id="Baseline-M" style="fill:none;stroke:#27AAE1;opacity:1;stroke-width:0.577;" x1="263" x2="3036" y1="1126" y2="1126"/>
  <line id="Capline-M" style="fill:none;stroke:#27AAE1;opacity:1;stroke-width:0.577;" x1="263" x2="3036" y1="1055.54" y2="1055.54"/>
  <g id="H-reference" style="fill:#27AAE1;stroke:none;" transform="matrix(1 0 0 1 339 1556)">
   <path d="M 54.9316 0 L 57.666 0 L 30.5664 -70.459 L 28.0762 -70.459 L 0.976562 0 L 3.66211 0 L 12.9395 -24.4629 L 45.7031 -24.4629 Z M 29.1992 -67.0898 L 29.4434 -67.0898 L 44.8242 -26.709 L 13.8184 -26.709 Z"/>
  </g>
  <line id="Baseline-L" style="fill:none;stroke:#27AAE1;opacity:1;stroke-width:0.577;" x1="263" x2="3036" y1="1556" y2="1556"/>
  <line id="Capline-L" style="fill:none;stroke:#27AAE1;opacity:1;stroke-width:0.577;" x1="263" x2="3036" y1="1485.54" y2="1485.54"/>
  <rect height="119.336" id="left-margin" style="fill:#00AEEF;stroke:none;opacity:0.4;" width="12.4512" x="1369.4" y="1030.79"/>
  <rect height="119.336" id="right-margin" style="fill:#00AEEF;stroke:none;opacity:0.4;" width="12.4512" x="1517.84" y="1030.79"/>
 </g>
 <g id="Symbols">
  <g id="Black-L" transform="matrix(1 0 0 1 2822.95 1556)">
   <path d="M 33.0078 -14.9414 C 35.8887 -14.9414 37.3047 -16.2109 37.3047 -19.2383 L 37.3047 -51.123 C 37.3047 -54.1992 35.8887 -55.4688 33.0078 -55.4688 L 16.0645 -55.4688 L 16.0645 -14.9414 Z M 90.625 -35.2539 C 90.625 -27.6367 95.1172 -20.9473 101.514 -17.7734 L 101.514 -52.7344 C 95.0684 -49.6582 90.625 -43.0664 90.625 -35.2539 Z M 119.385 -17.7734 C 125.732 -20.9961 130.176 -27.7344 130.273 -35.2539 C 130.371 -42.8711 125.83 -49.4629 119.385 -52.6367 Z M 187.891 -55.4688 C 185.01 -55.4688 183.594 -54.1992 183.594 -51.123 L 183.594 -19.2383 C 183.594 -16.2109 185.01 -14.9414 187.891 -14.9414 L 204.834 -14.9414 L 204.834 -55.4688 Z M 204.834 2.39258 L 185.645 2.39258 C 173.535 2.39258 166.26 -4.83398 166.26 -16.9922 L 166.26 -53.418 C 166.26 -65.5762 173.486 -72.8027 185.645 -72.8027 L 204.834 -72.8027 L 204.834 -77.0508 C 204.834 -92.2363 196.191 -100.83 180.908 -100.83 L 119.385 -100.83 L 119.385 -71.9727 C 136.084 -67.9199 148.096 -53.2227 148.389 -35.2051 C 148.633 -17.041 136.23 -2.24609 119.385 1.75781 L 119.385 30.4688 L 180.908 30.4688 C 196.191 30.4688 204.834 21.8262 204.834 6.64062 Z M 16.0645 2.39258 L 16.0645 6.64062 C 16.0645 21.8262 24.7559 30.4688 39.9902 30.4688 L 101.514 30.4688 L 101.514 1.75781 C 84.7168 -2.14844 72.5098 -17.041 72.5098 -35.2051 C 72.5098 -53.3203 84.7168 -68.3105 101.514 -72.2168 L 101.514 -100.83 L 39.9902 -100.83 C 24.7559 -100.83 16.0645 -92.2363 16.0645 -77.0508 L 16.0645 -72.8027 L 35.2539 -72.8027 C 47.4121 -72.8027 54.6387 -65.5762 54.6387 -53.418 L 54.6387 -16.9922 C 54.6387 -4.83398 47.4121 2.39258 35.2539 2.39258 Z"/>
  </g>
  <g id="Heavy-L" transform="matrix(1 0 0 1 2528.07 1556)">
   <path d="M 34.3262 -14.1113 C 37.4023 -14.1113 38.9648 -15.5762 38.9648 -18.75 L 38.9648 -51.6602 C 38.9648 -54.834 37.4023 -56.2988 34.3262 -56.2988 L 16.0645 -56.2988 L 16.0645 -14.1113 Z M 88.1348 -35.2539 C 88.1348 -26.9043 93.4082 -19.6289 100.684 -16.748 L 100.684 -53.7109 C 93.3105 -50.9277 88.1348 -43.7988 88.1348 -35.2539 Z M 116.406 -16.748 C 123.633 -19.6777 128.857 -26.9531 128.955 -35.2539 C 129.004 -43.6035 123.73 -50.7812 116.406 -53.6621 Z M 182.861 -56.2988 C 179.834 -56.2988 178.223 -54.834 178.223 -51.6602 L 178.223 -18.75 C 178.223 -15.5762 179.834 -14.1113 182.861 -14.1113 L 201.172 -14.1113 L 201.172 -56.2988 Z M 201.172 1.17188 L 181.104 1.17188 C 169.727 1.17188 162.988 -5.56641 162.988 -16.9922 L 162.988 -53.418 C 162.988 -64.8438 169.678 -71.5332 181.104 -71.5332 L 201.172 -71.5332 L 201.172 -76.5625 C 201.172 -91.1133 193.018 -99.1699 178.418 -99.1699 L 116.406 -99.1699 L 116.406 -70.3125 C 132.617 -66.748 144.385 -52.5879 144.678 -35.2051 C 144.873 -17.6758 132.715 -3.41797 116.406 0.0976562 L 116.406 28.8086 L 178.418 28.8086 C 193.018 28.8086 201.172 20.752 201.172 6.20117 Z M 16.0645 1.17188 L 16.0645 6.20117 C 16.0645 20.752 24.2188 28.8086 38.8184 28.8086 L 100.684 28.8086 L 100.684 0.0976562 C 84.375 -3.36914 72.4121 -17.6758 72.4121 -35.2051 C 72.4121 -52.6855 84.375 -67.0898 100.684 -70.5078 L 100.684 -99.1699 L 38.8184 -99.1699 C 24.2188 -99.1699 16.0645 -91.1133 16.0645 -76.5625 L 16.0645 -71.5332 L 36.1328 -71.5332 C 47.5098 -71.5332 54.248 -64.8438 54.248 -53.418 L 54.248 -16.9922 C 54.248 -5.56641 47.5098 1.17188 36.1328 1.17188 Z"/>
  </g>
  <g id="Bold-L" transform="matrix(1 0 0 1 2233.43 1556)">
   <path d="M 35.8398 -13.1836 C 39.0625 -13.1836 40.8203 -14.8438 40.8203 -18.1641 L 40.8203 -52.1973 C 40.8203 -55.5664 39.0625 -57.1777 35.8398 -57.1777 L 16.0645 -57.1777 L 16.0645 -13.1836 Z M 85.3516 -35.2539 C 85.3516 -26.0742 91.4551 -18.1641 99.7559 -15.625 L 99.7559 -54.7852 C 91.4062 -52.3438 85.3516 -44.6289 85.3516 -35.2539 Z M 113.037 -15.625 C 121.289 -18.2129 127.344 -26.0742 127.441 -35.2539 C 127.49 -44.4336 121.338 -52.1973 113.037 -54.7363 Z M 177.246 -57.1777 C 174.023 -57.1777 172.266 -55.5664 172.266 -52.1973 L 172.266 -18.1641 C 172.266 -14.8438 174.023 -13.1836 177.246 -13.1836 L 197.021 -13.1836 L 197.021 -57.1777 Z M 197.021 -0.195312 L 176.025 -0.195312 C 165.479 -0.195312 159.277 -6.39648 159.277 -16.9434 L 159.277 -53.418 C 159.277 -64.0137 165.479 -70.166 176.025 -70.166 L 197.021 -70.166 L 197.021 -76.0254 C 197.021 -89.8438 189.502 -97.3633 175.586 -97.3633 L 113.037 -97.3633 L 113.037 -68.5059 C 128.76 -65.4297 140.283 -51.8555 140.479 -35.1562 C 140.674 -18.4082 128.809 -4.78516 113.037 -1.75781 L 113.037 27.002 L 175.586 27.002 C 189.502 27.002 197.021 19.4824 197.021 5.66406 Z M 16.0645 -0.195312 L 16.0645 5.66406 C 16.0645 19.5312 23.6328 27.002 37.5 27.002 L 99.7559 27.002 L 99.7559 -1.75781 C 83.9844 -4.6875 72.2656 -18.3594 72.2656 -35.1562 C 72.2656 -51.9531 83.9844 -65.7227 99.7559 -68.6523 L 99.7559 -97.3633 L 37.5 -97.3633 C 23.6328 -97.3633 16.0645 -89.8926 16.0645 -76.0254 L 16.0645 -70.166 L 37.0605 -70.166 C 47.6074 -70.166 53.8086 -64.0137 53.8086 -53.418 L 53.8086 -16.9434 C 53.8086 -6.39648 47.6074 -0.195312 37.0605 -0.195312 Z"/>
  </g>
  <g id="Semibold-L" transform="matrix(1 0 0 1 1938.14 1556)">
   <path d="M 36.8652 -12.5488 C 40.2344 -12.5488 42.0898 -14.3555 42.0898 -17.7734 L 42.0898 -52.5879 C 42.0898 -56.0547 40.2344 -57.8125 36.8652 -57.8125 L 16.0645 -57.8125 L 16.0645 -12.5488 Z M 83.4473 -35.2051 C 83.4473 -25.4883 90.1367 -17.1875 99.1211 -14.8438 L 99.1211 -55.5176 C 90.0879 -53.3203 83.4473 -45.166 83.4473 -35.2051 Z M 110.693 -14.8438 C 119.629 -17.1875 126.318 -25.4883 126.416 -35.2051 C 126.465 -44.9707 119.727 -53.1738 110.693 -55.5176 Z M 173.389 -57.8125 C 170.02 -57.8125 168.164 -56.0547 168.164 -52.5879 L 168.164 -17.7734 C 168.164 -14.3555 170.02 -12.5488 173.389 -12.5488 L 194.189 -12.5488 L 194.189 -57.8125 Z M 194.189 -1.17188 L 172.559 -1.17188 C 162.598 -1.17188 156.787 -6.93359 156.787 -16.9434 L 156.787 -53.418 C 156.787 -63.4277 162.549 -69.1895 172.559 -69.1895 L 194.189 -69.1895 L 194.189 -75.6836 C 194.189 -88.9648 187.109 -96.0938 173.633 -96.0938 L 110.693 -96.0938 L 110.693 -67.2363 C 126.074 -64.5508 137.402 -51.3672 137.598 -35.1562 C 137.793 -18.8965 126.123 -5.71289 110.693 -3.02734 L 110.693 25.7324 L 173.633 25.7324 C 187.109 25.7324 194.189 18.6523 194.189 5.32227 Z M 16.0645 -1.17188 L 16.0645 5.32227 C 16.0645 18.7012 23.1934 25.7324 36.6211 25.7324 L 99.1211 25.7324 L 99.1211 -3.02734 C 83.7402 -5.61523 72.2168 -18.8477 72.2168 -35.1562 C 72.2168 -51.416 83.7402 -64.7949 99.1211 -67.3828 L 99.1211 -96.0938 L 36.6211 -96.0938 C 23.1934 -96.0938 16.0645 -89.0137 16.0645 -75.6836 L 16.0645 -69.1895 L 37.6953 -69.1895 C 47.7051 -69.1895 53.4668 -63.4277 53.4668 -53.418 L 53.4668 -16.9434 C 53.4668 -6.93359 47.7051 -1.17188 37.6953 -1.17188 Z"/>
  </g>
  <g id="Medium-L" transform="matrix(1 0 0 1 1642.5 1556)">
   <path d="M 37.6465 -12.1094 C 41.1133 -12.1094 43.0176 -13.9648 43.0176 -17.4805 L 43.0176 -52.9297 C 43.0176 -56.3965 41.1133 -58.252 37.6465 -58.252 L 16.0645 -58.252 L 16.0645 -12.1094 Z M 81.9824 -35.2051 C 81.9824 -25.0488 89.1602 -16.4062 98.6328 -14.2578 L 98.6328 -56.1035 C 89.0625 -54.0527 81.9824 -45.6055 81.9824 -35.2051 Z M 108.936 -14.2578 C 118.408 -16.4062 125.537 -25.0488 125.635 -35.2051 C 125.684 -45.4102 118.457 -53.9551 108.936 -56.1035 Z M 170.41 -58.252 C 166.943 -58.252 165.039 -56.3965 165.039 -52.9297 L 165.039 -17.4805 C 165.039 -13.9648 166.943 -12.1094 170.41 -12.1094 L 192.041 -12.1094 L 192.041 -58.252 Z M 192.041 -1.9043 L 169.873 -1.9043 C 160.352 -1.9043 154.834 -7.37305 154.834 -16.9434 L 154.834 -53.4668 C 154.834 -62.9883 160.352 -68.5059 169.873 -68.5059 L 192.041 -68.5059 L 192.041 -75.3906 C 192.041 -88.3301 185.254 -95.1172 172.119 -95.1172 L 108.936 -95.1172 L 108.936 -66.2598 C 124.023 -63.8672 135.254 -51.0254 135.449 -35.1562 C 135.596 -19.2871 124.072 -6.39648 108.936 -4.00391 L 108.936 24.7559 L 172.119 24.7559 C 185.254 24.7559 192.041 17.9688 192.041 5.07812 Z M 16.0645 -1.9043 L 16.0645 5.07812 C 16.0645 18.0664 22.9004 24.7559 35.9375 24.7559 L 98.6328 24.7559 L 98.6328 -4.00391 C 83.5449 -6.34766 72.168 -19.2383 72.168 -35.1562 C 72.168 -51.0742 83.5449 -64.1113 98.6328 -66.4062 L 98.6328 -95.1172 L 35.9375 -95.1172 C 22.9004 -95.1172 16.0645 -88.3789 16.0645 -75.3906 L 16.0645 -68.5059 L 38.1836 -68.5059 C 47.7539 -68.5059 53.2715 -62.9883 53.2715 -53.4668 L 53.2715 -16.9434 C 53.2715 -7.37305 47.7539 -1.9043 38.1836 -1.9043 Z"/>
  </g>
  <g id="Regular-L" transform="matrix(1 0 0 1 1347.21 1556)">
   <path d="M 38.6719 -11.4746 C 42.2852 -11.4746 44.2871 -13.4766 44.2871 -17.0898 L 44.2871 -53.2715 C 44.2871 -56.8848 42.2852 -58.8867 38.6719 -58.8867 L 16.0645 -58.8867 L 16.0645 -11.4746 Z M 80.0781 -35.2051 C 80.0781 -24.4629 87.8418 -15.3809 97.998 -13.4766 L 97.998 -56.8359 C 87.7441 -55.0293 80.0781 -46.1426 80.0781 -35.2051 Z M 106.641 -13.4766 C 116.797 -15.3809 124.512 -24.4629 124.609 -35.2051 C 124.658 -45.9473 116.846 -54.9316 106.641 -56.8359 Z M 166.602 -58.8867 C 162.988 -58.8867 160.986 -56.8848 160.986 -53.2715 L 160.986 -17.0898 C 160.986 -13.4766 162.988 -11.4746 166.602 -11.4746 L 189.209 -11.4746 L 189.209 -58.8867 Z M 189.209 -2.83203 L 166.455 -2.83203 C 157.471 -2.83203 152.344 -7.95898 152.344 -16.8945 L 152.344 -53.4668 C 152.344 -62.4023 157.471 -67.5293 166.455 -67.5293 L 189.209 -67.5293 L 189.209 -75.0488 C 189.209 -87.4512 182.861 -93.8477 170.215 -93.8477 L 106.641 -93.8477 L 106.641 -64.9902 C 121.387 -62.9883 132.422 -50.4883 132.568 -35.1562 C 132.715 -19.7754 121.387 -7.27539 106.641 -5.27344 L 106.641 23.5352 L 170.215 23.5352 C 182.861 23.5352 189.209 17.1387 189.209 4.73633 Z M 16.0645 -2.83203 L 16.0645 4.73633 C 16.0645 17.1875 22.4609 23.5352 35.0586 23.5352 L 97.998 23.5352 L 97.998 -5.27344 C 83.252 -7.22656 72.0703 -19.7266 72.0703 -35.1562 C 72.0703 -50.5371 83.252 -63.1836 97.998 -65.0879 L 97.998 -93.8477 L 35.0586 -93.8477 C 22.4609 -93.8477 16.0645 -87.5488 16.0645 -75.0488 L 16.0645 -67.5293 L 38.8672 -67.5293 C 47.8027 -67.5293 52.9297 -62.4023 52.9297 -53.4668 L 52.9297 -16.8945 C 52.9297 -7.95898 47.8027 -2.83203 38.8672 -2.83203 Z"/>
  </g>
  <g id="Light-L" transform="matrix(1 0 0 1 1052.03 1556)">
   <path d="M 38.7207 -10.791 C 43.0176 -10.791 45.3613 -13.1348 45.3613 -17.4316 L 45.3613 -52.8809 C 45.3613 -57.1777 43.0176 -59.5215 38.7207 -59.5215 L 16.0645 -59.5215 L 16.0645 -10.791 Z M 77.4902 -35.1562 C 77.4902 -23.5352 86.1328 -13.8672 97.2656 -12.3535 L 97.2656 -57.9102 C 86.084 -56.4941 77.4902 -46.9238 77.4902 -35.1562 Z M 103.906 -12.3535 C 115.088 -13.8672 123.633 -23.5352 123.682 -35.1562 C 123.73 -46.7773 115.088 -56.3965 103.906 -57.9102 Z M 163.477 -59.5215 C 159.18 -59.5215 156.836 -57.1777 156.836 -52.8809 L 156.836 -17.4316 C 156.836 -13.1348 159.18 -10.791 163.477 -10.791 L 186.133 -10.791 L 186.133 -59.5215 Z M 186.133 -4.19922 L 163.33 -4.19922 C 154.883 -4.19922 150.244 -8.88672 150.244 -17.2852 L 150.244 -53.0273 C 150.244 -61.4258 154.883 -66.1133 163.33 -66.1133 L 186.133 -66.1133 L 186.133 -74.9512 C 186.133 -86.6699 180.029 -92.8223 168.164 -92.8223 L 103.906 -92.8223 L 103.906 -64.209 C 118.604 -62.6465 129.834 -50.3418 129.932 -35.1562 C 130.029 -19.9219 118.604 -7.61719 103.906 -6.00586 L 103.906 22.5098 L 168.164 22.5098 C 180.029 22.5098 186.133 16.3574 186.133 4.6875 Z M 16.0645 -4.19922 L 16.0645 4.6875 C 16.0645 16.4551 22.168 22.5098 34.0332 22.5098 L 97.2656 22.5098 L 97.2656 -6.00586 C 82.5684 -7.56836 71.2402 -19.873 71.2402 -35.1562 C 71.2402 -50.3906 82.5684 -62.793 97.2656 -64.3066 L 97.2656 -92.8223 L 34.0332 -92.8223 C 22.168 -92.8223 16.0645 -86.7676 16.0645 -74.9512 L 16.0645 -66.1133 L 38.8672 -66.1133 C 47.2656 -66.1133 51.9531 -61.4258 51.9531 -53.0273 L 51.9531 -17.2852 C 51.9531 -8.88672 47.2656 -4.19922 38.8672 -4.19922 Z"/>
  </g>
  <g id="Thin-L" transform="matrix(1 0 0 1 757.374 1556)">
   <path d="M 38.7207 -9.91211 C 43.9453 -9.91211 46.7285 -12.6953 46.7285 -17.9199 L 46.7285 -52.2949 C 46.7285 -57.5195 43.9453 -60.3027 38.7207 -60.3027 L 16.0645 -60.3027 L 16.0645 -9.91211 Z M 74.0723 -35.1074 C 74.0723 -22.3145 83.8379 -11.8652 96.3379 -10.8887 L 96.3379 -59.3262 C 83.7891 -58.3984 74.0723 -47.9492 74.0723 -35.1074 Z M 100.244 -10.8887 C 112.793 -11.8652 122.51 -22.3145 122.51 -35.1074 C 122.559 -47.9004 112.793 -58.3984 100.244 -59.3262 Z M 159.326 -60.3027 C 154.102 -60.3027 151.318 -57.5195 151.318 -52.2949 L 151.318 -17.9199 C 151.318 -12.6953 154.102 -9.91211 159.326 -9.91211 L 182.031 -9.91211 L 182.031 -60.3027 Z M 182.031 -6.00586 L 159.18 -6.00586 C 151.514 -6.00586 147.412 -10.1074 147.412 -17.7734 L 147.412 -52.4902 C 147.412 -60.1562 151.514 -64.2578 159.18 -64.2578 L 182.031 -64.2578 L 182.031 -74.8535 C 182.031 -85.5957 176.27 -91.4551 165.43 -91.4551 L 100.244 -91.4551 L 100.244 -63.1836 C 114.99 -62.2559 126.416 -50.1465 126.465 -35.1074 C 126.465 -20.1172 114.893 -8.00781 100.244 -7.03125 L 100.244 21.1914 L 165.43 21.1914 C 176.27 21.1914 182.031 15.332 182.031 4.63867 Z M 16.0645 -6.00586 L 16.0645 4.63867 C 16.0645 15.4785 21.7773 21.1914 32.666 21.1914 L 96.3379 21.1914 L 96.3379 -7.03125 C 81.6895 -7.95898 70.166 -20.0684 70.166 -35.1074 C 70.166 -50.1465 81.6895 -62.2559 96.3379 -63.2324 L 96.3379 -91.4551 L 32.666 -91.4551 C 21.7773 -91.4551 16.0645 -85.7422 16.0645 -74.8535 L 16.0645 -64.2578 L 38.916 -64.2578 C 46.582 -64.2578 50.6836 -60.1562 50.6836 -52.4902 L 50.6836 -17.7734 C 50.6836 -10.1074 46.582 -6.00586 38.916 -6.00586 Z"/>
  </g>
  <g id="Ultralight-L" transform="matrix(1 0 0 1 461.713 1556)">
   <path d="M 38.7695 -9.47266 C 44.4336 -9.47266 47.4609 -12.5 47.4609 -18.1641 L 47.4609 -52.002 C 47.4609 -57.7148 44.4336 -60.7422 38.7695 -60.7422 L 16.0645 -60.7422 L 16.0645 -9.47266 Z M 72.3145 -35.1074 C 72.3145 -21.6797 82.666 -10.791 95.8496 -10.1562 L 95.8496 -60.0586 C 82.666 -59.375 72.3145 -48.4863 72.3145 -35.1074 Z M 98.3887 -10.1562 C 111.621 -10.791 121.924 -21.6797 121.924 -35.1074 C 121.924 -48.4863 111.572 -59.4238 98.3887 -60.0586 Z M 157.227 -60.7422 C 151.514 -60.7422 148.535 -57.7148 148.535 -52.002 L 148.535 -18.1641 C 148.535 -12.5 151.514 -9.47266 157.227 -9.47266 L 179.932 -9.47266 L 179.932 -60.7422 Z M 179.932 -6.93359 L 157.08 -6.93359 C 149.756 -6.93359 145.947 -10.7422 145.947 -18.0176 L 145.947 -52.1973 C 145.947 -59.4727 149.756 -63.2812 157.08 -63.2812 L 179.932 -63.2812 L 179.932 -74.8047 C 179.932 -85.0098 174.365 -90.7227 164.014 -90.7227 L 98.3887 -90.7227 L 98.3887 -62.6953 C 113.135 -62.0117 124.658 -50 124.658 -35.1074 C 124.609 -20.2148 113.037 -8.20312 98.3887 -7.51953 L 98.3887 20.5566 L 164.014 20.5566 C 174.365 20.5566 179.932 14.7949 179.932 4.58984 Z M 16.0645 -6.93359 L 16.0645 4.58984 C 16.0645 14.9902 21.582 20.5566 31.9824 20.5566 L 95.8496 20.5566 L 95.8496 -7.51953 C 81.2012 -8.20312 69.5801 -20.2148 69.5801 -35.1074 C 69.5801 -50 81.2012 -62.0117 95.8496 -62.6465 L 95.8496 -90.7227 L 31.9824 -90.7227 C 21.582 -90.7227 16.0645 -85.2051 16.0645 -74.8047 L 16.0645 -63.2812 L 38.916 -63.2812 C 46.1914 -63.2812 50 -59.4727 50 -52.1973 L 50 -18.0176 C 50 -10.7422 46.1914 -6.93359 38.916 -6.93359 Z"/>
  </g>
  <g id="Black-M" transform="matrix(1 0 0 1 2846.14 1126)">
   <path d="M 23.7793 -20.2148 C 26.1719 -20.2148 27.2949 -21.1914 27.2949 -23.7305 L 27.2949 -46.6309 C 27.2949 -49.2188 26.1719 -50.1465 23.7793 -50.1465 L 12.4512 -50.1465 L 12.4512 -20.2148 Z M 72.2168 -35.2539 C 72.2168 -29.8828 75.0977 -25.0977 79.3945 -22.5098 L 79.3945 -48.0469 C 75.0977 -45.459 72.2168 -40.7715 72.2168 -35.2539 Z M 95.1172 -22.5098 C 99.3652 -25.1953 102.246 -29.9316 102.295 -35.2539 C 102.393 -40.625 99.4141 -45.3613 95.1172 -47.998 Z M 150.732 -50.1465 C 148.34 -50.1465 147.217 -49.2188 147.217 -46.6309 L 147.217 -23.7305 C 147.217 -21.1914 148.34 -20.2148 150.732 -20.2148 L 162.061 -20.2148 L 162.061 -50.1465 Z M 162.061 -5.12695 L 148.291 -5.12695 C 138.232 -5.12695 132.129 -11.1816 132.129 -21.3379 L 132.129 -49.0723 C 132.129 -59.2285 138.135 -65.2344 148.291 -65.2344 L 162.061 -65.2344 L 162.061 -68.2129 C 162.061 -80.4688 154.785 -87.7441 142.529 -87.7441 L 95.1172 -87.7441 L 95.1172 -65.5273 C 108.691 -62.0117 118.408 -49.9512 118.652 -35.2051 C 118.848 -20.3613 108.838 -8.20312 95.1172 -4.73633 L 95.1172 17.334 L 142.529 17.334 C 154.785 17.334 162.061 10.0586 162.061 -2.19727 Z M 12.4512 -5.12695 L 12.4512 -2.19727 C 12.4512 10.0586 19.7266 17.334 31.9824 17.334 L 79.3945 17.334 L 79.3945 -4.73633 C 65.7227 -8.1543 55.8594 -20.3613 55.8594 -35.2051 C 55.8594 -50.0488 65.7227 -62.3047 79.3945 -65.7227 L 79.3945 -87.7441 L 31.9824 -87.7441 C 19.7266 -87.7441 12.4512 -80.4688 12.4512 -68.2129 L 12.4512 -65.2344 L 26.1719 -65.2344 C 36.3281 -65.2344 42.3828 -59.2285 42.3828 -49.0723 L 42.3828 -21.3379 C 42.3828 -11.1816 36.3281 -5.12695 26.1719 -5.12695 Z"/>
  </g>
  <g id="Heavy-M" transform="matrix(1 0 0 1 2551.04 1126)">
   <path d="M 25.2441 -19.5312 C 27.6367 -19.5312 28.8086 -20.5566 28.8086 -23.0957 L 28.8086 -47.3145 C 28.8086 -49.8535 27.6367 -50.8789 25.2441 -50.8789 L 12.4512 -50.8789 L 12.4512 -19.5312 Z M 70.166 -35.2539 C 70.166 -29.2969 73.6816 -24.0723 78.6621 -21.6797 L 78.6621 -48.8281 C 73.6328 -46.4844 70.166 -41.3574 70.166 -35.2539 Z M 92.5293 -21.6797 C 97.5098 -24.1211 100.977 -29.3457 101.074 -35.2539 C 101.123 -41.2109 97.5586 -46.3379 92.5293 -48.7793 Z M 146.045 -50.8789 C 143.652 -50.8789 142.48 -49.8535 142.48 -47.3145 L 142.48 -23.0957 C 142.48 -20.5566 143.652 -19.5312 146.045 -19.5312 L 158.838 -19.5312 L 158.838 -50.8789 Z M 158.838 -6.15234 L 144.189 -6.15234 C 134.766 -6.15234 129.102 -11.7188 129.102 -21.1914 L 129.102 -49.2188 C 129.102 -58.6914 134.717 -64.2578 144.189 -64.2578 L 158.838 -64.2578 L 158.838 -67.7246 C 158.838 -79.4434 152.051 -86.2305 140.283 -86.2305 L 92.5293 -86.2305 L 92.5293 -63.916 C 105.615 -60.791 115.039 -49.3164 115.234 -35.2051 C 115.43 -21.0449 105.713 -9.42383 92.5293 -6.34766 L 92.5293 15.8203 L 140.283 15.8203 C 152.051 15.8203 158.838 9.08203 158.838 -2.68555 Z M 12.4512 -6.15234 L 12.4512 -2.68555 C 12.4512 9.08203 19.2383 15.8203 31.0059 15.8203 L 78.6621 15.8203 L 78.6621 -6.34766 C 65.5762 -9.375 55.957 -20.9961 55.957 -35.2051 C 55.957 -49.3652 65.5762 -61.084 78.6621 -64.0625 L 78.6621 -86.2305 L 31.0059 -86.2305 C 19.2383 -86.2305 12.4512 -79.4434 12.4512 -67.7246 L 12.4512 -64.2578 L 27.0996 -64.2578 C 36.5723 -64.2578 42.1875 -58.6914 42.1875 -49.2188 L 42.1875 -21.1914 C 42.1875 -11.7188 36.5723 -6.15234 27.0996 -6.15234 Z"/>
  </g>
  <g id="Bold-M" transform="matrix(1 0 0 1 2256.14 1126)">
   <path d="M 26.8555 -18.7012 C 29.248 -18.7012 30.5176 -19.873 30.5176 -22.3633 L 30.5176 -48.0469 C 30.5176 -50.5371 29.248 -51.709 26.8555 -51.709 L 12.4512 -51.709 L 12.4512 -18.7012 Z M 67.8711 -35.2539 C 67.8711 -28.6621 72.0703 -22.9492 77.8809 -20.752 L 77.8809 -49.707 C 72.0215 -47.6074 67.8711 -41.9922 67.8711 -35.2539 Z M 89.6973 -20.752 C 95.459 -22.9492 99.6094 -28.6621 99.707 -35.2539 C 99.7559 -41.8457 95.5078 -47.5098 89.6973 -49.6582 Z M 140.82 -51.709 C 138.428 -51.709 137.207 -50.5371 137.207 -48.0469 L 137.207 -22.3633 C 137.207 -19.873 138.428 -18.7012 140.82 -18.7012 L 155.225 -18.7012 L 155.225 -51.709 Z M 155.225 -7.22656 L 139.551 -7.22656 C 130.859 -7.22656 125.684 -12.3535 125.684 -21.0938 L 125.684 -49.3164 C 125.684 -58.0566 130.811 -63.1836 139.551 -63.1836 L 155.225 -63.1836 L 155.225 -67.1875 C 155.225 -78.3203 149.023 -84.5215 137.793 -84.5215 L 89.6973 -84.5215 L 89.6973 -62.1094 C 102.148 -59.4238 111.23 -48.584 111.426 -35.2051 C 111.621 -21.7773 102.246 -10.8398 89.6973 -8.1543 L 89.6973 14.1113 L 137.793 14.1113 C 149.023 14.1113 155.225 7.95898 155.225 -3.22266 Z M 12.4512 -7.22656 L 12.4512 -3.22266 C 12.4512 7.95898 18.6523 14.1113 29.8828 14.1113 L 77.8809 14.1113 L 77.8809 -8.1543 C 65.332 -10.7422 56.1035 -21.7285 56.1035 -35.2051 C 56.1035 -48.6328 65.332 -59.7168 77.8809 -62.2559 L 77.8809 -84.5215 L 29.8828 -84.5215 C 18.6523 -84.5215 12.4512 -78.3203 12.4512 -67.1875 L 12.4512 -63.1836 L 28.125 -63.1836 C 36.8652 -63.1836 41.9922 -58.0566 41.9922 -49.3164 L 41.9922 -21.0938 C 41.9922 -12.3535 36.8652 -7.22656 28.125 -7.22656 Z"/>
  </g>
  <g id="Semibold-M" transform="matrix(1 0 0 1 1960.67 1126)">
   <path d="M 28.0273 -18.1641 C 30.3711 -18.1641 31.6895 -19.3848 31.6895 -21.8262 L 31.6895 -48.584 C 31.6895 -51.0254 30.3711 -52.2461 28.0273 -52.2461 L 12.4512 -52.2461 L 12.4512 -18.1641 Z M 66.3086 -35.2539 C 66.3086 -28.2227 70.9961 -22.1191 77.3438 -20.1172 L 77.3438 -50.293 C 70.8984 -48.3887 66.3086 -42.4316 66.3086 -35.2539 Z M 87.6953 -20.1172 C 93.9941 -22.168 98.6328 -28.2227 98.7305 -35.2539 C 98.7793 -42.2852 94.043 -48.291 87.6953 -50.293 Z M 137.207 -52.2461 C 134.814 -52.2461 133.545 -51.0254 133.545 -48.584 L 133.545 -21.8262 C 133.545 -19.3848 134.814 -18.1641 137.207 -18.1641 L 152.734 -18.1641 L 152.734 -52.2461 Z M 152.734 -8.00781 L 136.328 -8.00781 C 128.174 -8.00781 123.389 -12.793 123.389 -20.9961 L 123.389 -49.4141 C 123.389 -57.6172 128.174 -62.4023 136.328 -62.4023 L 152.734 -62.4023 L 152.734 -66.7969 C 152.734 -77.5391 146.973 -83.3008 136.084 -83.3008 L 87.6953 -83.3008 L 87.6953 -60.8887 C 99.8047 -58.5449 108.643 -48.0469 108.838 -35.2051 C 108.984 -22.2656 99.8535 -11.7676 87.6953 -9.42383 L 87.6953 12.9395 L 136.084 12.9395 C 146.973 12.9395 152.734 7.17773 152.734 -3.61328 Z M 12.4512 -8.00781 L 12.4512 -3.61328 C 12.4512 7.17773 18.2617 12.9395 29.1016 12.9395 L 77.3438 12.9395 L 77.3438 -9.42383 C 65.1855 -11.7188 56.2012 -22.2168 56.2012 -35.2051 C 56.2012 -48.0957 65.1855 -58.7402 77.3438 -61.0352 L 77.3438 -83.3008 L 29.1016 -83.3008 C 18.2617 -83.3008 12.4512 -77.5391 12.4512 -66.7969 L 12.4512 -62.4023 L 28.8574 -62.4023 C 37.0605 -62.4023 41.8457 -57.6172 41.8457 -49.4141 L 41.8457 -20.9961 C 41.8457 -12.793 37.0605 -8.00781 28.8574 -8.00781 Z"/>
  </g>
  <g id="Medium-M" transform="matrix(1 0 0 1 1664.89 1126)">
   <path d="M 28.8574 -17.7246 C 31.25 -17.7246 32.5684 -19.043 32.5684 -21.4355 L 32.5684 -48.9746 C 32.5684 -51.3672 31.25 -52.6855 28.8574 -52.6855 L 12.4512 -52.6855 L 12.4512 -17.7246 Z M 65.0879 -35.2539 C 65.0879 -27.8809 70.166 -21.5332 76.9043 -19.6289 L 76.9043 -50.7812 C 70.0684 -48.9746 65.0879 -42.8223 65.0879 -35.2539 Z M 86.1816 -19.6289 C 92.9199 -21.5332 97.9004 -27.8809 97.998 -35.2539 C 98.0469 -42.627 92.9688 -48.877 86.1816 -50.7812 Z M 134.473 -52.6855 C 132.08 -52.6855 130.762 -51.3672 130.762 -48.9746 L 130.762 -21.4355 C 130.762 -19.043 132.08 -17.7246 134.473 -17.7246 L 150.879 -17.7246 L 150.879 -52.6855 Z M 150.879 -8.59375 L 133.936 -8.59375 C 126.172 -8.59375 121.582 -13.1348 121.582 -20.8984 L 121.582 -49.5117 C 121.582 -57.2754 126.123 -61.8164 133.936 -61.8164 L 150.879 -61.8164 L 150.879 -66.5039 C 150.879 -76.9531 145.361 -82.4219 134.766 -82.4219 L 86.1816 -82.4219 L 86.1816 -59.9609 C 97.998 -57.8125 106.689 -47.6562 106.836 -35.2051 C 106.982 -22.6562 98.0469 -12.5 86.1816 -10.3516 L 86.1816 12.0605 L 134.766 12.0605 C 145.361 12.0605 150.879 6.5918 150.879 -3.85742 Z M 12.4512 -8.59375 L 12.4512 -3.85742 C 12.4512 6.5918 17.9688 12.0605 28.5156 12.0605 L 76.9043 12.0605 L 76.9043 -10.3516 C 65.0879 -12.4512 56.25 -22.6074 56.25 -35.2051 C 56.25 -47.7051 65.0879 -58.0566 76.9043 -60.0586 L 76.9043 -82.4219 L 28.5156 -82.4219 C 17.9688 -82.4219 12.4512 -76.9531 12.4512 -66.5039 L 12.4512 -61.8164 L 29.3945 -61.8164 C 37.1582 -61.8164 41.748 -57.2754 41.748 -49.5117 L 41.748 -20.8984 C 41.748 -13.1348 37.1582 -8.59375 29.3945 -8.59375 Z"/>
  </g>
  <g id="Regular-M" transform="matrix(1 0 0 1 1369.4 1126)">
   <path d="M 29.9805 -17.1875 C 32.373 -17.1875 33.7402 -18.5547 33.7402 -20.9473 L 33.7402 -49.4629 C 33.7402 -51.8555 32.373 -53.2227 29.9805 -53.2227 L 12.4512 -53.2227 L 12.4512 -17.1875 Z M 63.5254 -35.2539 C 63.5254 -27.4414 69.0918 -20.752 76.3672 -18.9941 L 76.3672 -51.3672 C 68.9941 -49.707 63.5254 -43.2617 63.5254 -35.2539 Z M 84.2285 -18.9941 C 91.5039 -20.752 96.9727 -27.4414 97.0703 -35.2539 C 97.1191 -43.0664 91.5527 -49.6094 84.2285 -51.3672 Z M 130.908 -53.2227 C 128.516 -53.2227 127.148 -51.8555 127.148 -49.4629 L 127.148 -20.9473 C 127.148 -18.5547 128.516 -17.1875 130.908 -17.1875 L 148.438 -17.1875 L 148.438 -53.2227 Z M 148.438 -9.32617 L 130.762 -9.32617 C 123.486 -9.32617 119.287 -13.5742 119.287 -20.8008 L 119.287 -49.6094 C 119.287 -56.8359 123.486 -61.084 130.762 -61.084 L 148.438 -61.084 L 148.438 -66.1133 C 148.438 -76.1719 143.311 -81.25 133.105 -81.25 L 84.2285 -81.25 L 84.2285 -58.7402 C 95.6543 -56.8848 104.102 -47.168 104.248 -35.2051 C 104.395 -23.1445 95.6543 -13.4277 84.2285 -11.5723 L 84.2285 10.8887 L 133.105 10.8887 C 143.311 10.8887 148.438 5.81055 148.438 -4.24805 Z M 12.4512 -9.32617 L 12.4512 -4.24805 C 12.4512 5.81055 17.5781 10.8887 27.7832 10.8887 L 76.3672 10.8887 L 76.3672 -11.5723 C 64.9414 -13.3789 56.3477 -23.0957 56.3477 -35.2051 C 56.3477 -47.2168 64.9414 -57.0801 76.3672 -58.8379 L 76.3672 -81.25 L 27.7832 -81.25 C 17.5781 -81.25 12.4512 -76.2207 12.4512 -66.1133 L 12.4512 -61.084 L 30.0781 -61.084 C 37.3535 -61.084 41.6016 -56.8359 41.6016 -49.6094 L 41.6016 -20.8008 C 41.6016 -13.5742 37.3535 -9.32617 30.0781 -9.32617 Z"/>
  </g>
  <g id="Light-M" transform="matrix(1 0 0 1 1074.08 1126)">
   <path d="M 29.9805 -16.6016 C 33.0078 -16.6016 34.668 -18.2617 34.668 -21.2891 L 34.668 -49.0723 C 34.668 -52.0996 33.0078 -53.7598 29.9805 -53.7598 L 12.4512 -53.7598 L 12.4512 -16.6016 Z M 61.2305 -35.2051 C 61.2305 -26.6113 67.5293 -19.3848 75.7324 -18.0176 L 75.7324 -52.3438 C 67.4805 -51.0254 61.2305 -43.9453 61.2305 -35.2051 Z M 81.7383 -18.0176 C 89.9414 -19.3848 96.1914 -26.6113 96.2891 -35.2051 C 96.2891 -43.7988 89.9902 -50.9766 81.7383 -52.3438 Z M 128.076 -53.7598 C 125.098 -53.7598 123.389 -52.0996 123.389 -49.0723 L 123.389 -21.2891 C 123.389 -18.2617 125.098 -16.6016 128.076 -16.6016 L 145.654 -16.6016 L 145.654 -53.7598 Z M 145.654 -10.5469 L 127.979 -10.5469 C 121.191 -10.5469 117.383 -14.4043 117.383 -21.1426 L 117.383 -49.2188 C 117.383 -55.957 121.191 -59.8145 127.979 -59.8145 L 145.654 -59.8145 L 145.654 -66.0645 C 145.654 -75.4395 140.771 -80.3223 131.25 -80.3223 L 81.7383 -80.3223 L 81.7383 -58.0566 C 93.1641 -56.6406 101.807 -47.0215 101.904 -35.1562 C 102.002 -23.291 93.1641 -13.6719 81.7383 -12.2559 L 81.7383 9.96094 L 131.25 9.96094 C 140.771 9.96094 145.654 5.12695 145.654 -4.29688 Z M 12.4512 -10.5469 L 12.4512 -4.29688 C 12.4512 5.17578 17.334 9.96094 26.8555 9.96094 L 75.7324 9.96094 L 75.7324 -12.2559 C 64.3066 -13.623 55.6152 -23.2422 55.6152 -35.1562 C 55.6152 -47.0703 64.3066 -56.7383 75.7324 -58.1055 L 75.7324 -80.3223 L 26.8555 -80.3223 C 17.334 -80.3223 12.4512 -75.4883 12.4512 -66.0645 L 12.4512 -59.8145 L 30.127 -59.8145 C 36.8652 -59.8145 40.7227 -55.957 40.7227 -49.2188 L 40.7227 -21.1426 C 40.7227 -14.4043 36.8652 -10.5469 30.127 -10.5469 Z"/>
  </g>
  <g id="Thin-M" transform="matrix(1 0 0 1 779.225 1126)">
   <path d="M 30.0293 -15.8203 C 33.8867 -15.8203 35.9375 -17.8711 35.9375 -21.7285 L 35.9375 -48.584 C 35.9375 -52.4414 33.8867 -54.4922 30.0293 -54.4922 L 12.4512 -54.4922 L 12.4512 -15.8203 Z M 58.1543 -35.1562 C 58.1543 -25.4883 65.4785 -17.5293 74.8535 -16.6992 L 74.8535 -53.6133 C 65.4297 -52.7832 58.1543 -44.873 58.1543 -35.1562 Z M 78.5156 -16.6992 C 87.8906 -17.5293 95.2148 -25.4883 95.2148 -35.1562 C 95.2148 -44.8242 87.8906 -52.7344 78.5156 -53.6133 Z M 124.365 -54.4922 C 120.557 -54.4922 118.457 -52.4414 118.457 -48.584 L 118.457 -21.7285 C 118.457 -17.8711 120.557 -15.8203 124.365 -15.8203 L 141.943 -15.8203 L 141.943 -54.4922 Z M 141.943 -12.207 L 124.268 -12.207 C 118.164 -12.207 114.844 -15.4785 114.844 -21.582 L 114.844 -48.7305 C 114.844 -54.834 118.164 -58.1055 124.268 -58.1055 L 141.943 -58.1055 L 141.943 -65.9668 C 141.943 -74.4629 137.451 -79.1016 128.76 -79.1016 L 78.5156 -79.1016 L 78.5156 -57.1289 C 89.8926 -56.25 98.7305 -46.8262 98.7305 -35.1562 C 98.7793 -23.4375 89.8438 -14.0137 78.5156 -13.1348 L 78.5156 8.78906 L 128.76 8.78906 C 137.451 8.78906 141.943 4.19922 141.943 -4.3457 Z M 12.4512 -12.207 L 12.4512 -4.3457 C 12.4512 4.29688 16.9922 8.78906 25.6348 8.78906 L 74.8535 8.78906 L 74.8535 -13.1348 C 63.5254 -14.0137 54.5898 -23.4375 54.5898 -35.1562 C 54.5898 -46.8262 63.5254 -56.2988 74.8535 -57.1777 L 74.8535 -79.1016 L 25.6348 -79.1016 C 16.9922 -79.1016 12.4512 -74.5605 12.4512 -65.9668 L 12.4512 -58.1055 L 30.127 -58.1055 C 36.2305 -58.1055 39.5508 -54.834 39.5508 -48.7305 L 39.5508 -21.582 C 39.5508 -15.4785 36.2305 -12.207 30.127 -12.207 Z"/>
  </g>
  <g id="Ultralight-M" transform="matrix(1 0 0 1 483.466 1126)">
   <path d="M 30.0293 -15.4297 C 34.2773 -15.4297 36.5723 -17.6758 36.5723 -21.9238 L 36.5723 -48.3398 C 36.5723 -52.5879 34.2773 -54.8828 30.0293 -54.8828 L 12.4512 -54.8828 L 12.4512 -15.4297 Z M 56.5918 -35.1562 C 56.5918 -24.9512 64.4043 -16.6016 74.4141 -16.0156 L 74.4141 -54.248 C 64.4043 -53.6621 56.5918 -45.3125 56.5918 -35.1562 Z M 76.8066 -16.0156 C 86.8652 -16.6016 94.6777 -24.9512 94.6777 -35.1562 C 94.6777 -45.3125 86.8652 -53.6621 76.8066 -54.248 Z M 122.51 -54.8828 C 118.213 -54.8828 115.967 -52.5879 115.967 -48.3398 L 115.967 -21.9238 C 115.967 -17.6758 118.213 -15.4297 122.51 -15.4297 L 140.039 -15.4297 L 140.039 -54.8828 Z M 140.039 -13.0371 L 122.363 -13.0371 C 116.602 -13.0371 113.574 -16.0645 113.574 -21.8262 L 113.574 -48.4375 C 113.574 -54.1992 116.602 -57.2754 122.363 -57.2754 L 140.039 -57.2754 L 140.039 -65.918 C 140.039 -73.9746 135.693 -78.4668 127.539 -78.4668 L 76.8066 -78.4668 L 76.8066 -56.6406 C 88.2324 -56.0547 97.168 -46.7285 97.168 -35.1562 C 97.1191 -23.5352 88.1836 -14.209 76.8066 -13.623 L 76.8066 8.20312 L 127.539 8.20312 C 135.693 8.20312 140.039 3.71094 140.039 -4.3457 Z M 12.4512 -13.0371 L 12.4512 -4.3457 C 12.4512 3.85742 16.7969 8.20312 25 8.20312 L 74.4141 8.20312 L 74.4141 -13.623 C 63.0859 -14.209 54.1016 -23.5352 54.1016 -35.1562 C 54.1016 -46.7285 63.0859 -56.0547 74.4141 -56.6406 L 74.4141 -78.4668 L 25 -78.4668 C 16.7969 -78.4668 12.4512 -74.1211 12.4512 -65.918 L 12.4512 -57.2754 L 30.1758 -57.2754 C 35.9375 -57.2754 38.9648 -54.1992 38.9648 -48.4375 L 38.9648 -21.8262 C 38.9648 -16.0645 35.9375 -13.0371 30.1758 -13.0371 Z"/>
  </g>
  <g id="Black-S" transform="matrix(1 0 0 1 2865.14 696)">
   <path d="M 18.75 -23.4375 C 20.6055 -23.4375 21.4844 -24.1699 21.4844 -26.1719 L 21.4844 -44.2383 C 21.4844 -46.2402 20.6055 -46.9727 18.75 -46.9727 L 9.76562 -46.9727 L 9.76562 -23.4375 Z M 56.4453 -35.2539 C 56.4453 -31.0059 58.7402 -27.2461 62.1582 -25.1953 L 62.1582 -45.3125 C 58.7402 -43.3105 56.4453 -39.5996 56.4453 -35.2539 Z M 74.3652 -25.1953 C 77.7344 -27.2949 80.0293 -31.0547 80.0781 -35.2539 C 80.127 -39.502 77.7832 -43.2129 74.3652 -45.2637 Z M 117.773 -46.9727 C 115.918 -46.9727 115.039 -46.2402 115.039 -44.2383 L 115.039 -26.1719 C 115.039 -24.1699 115.918 -23.4375 117.773 -23.4375 L 126.758 -23.4375 L 126.758 -46.9727 Z M 126.758 -11.7188 L 115.918 -11.7188 C 108.057 -11.7188 103.32 -16.4062 103.32 -24.3164 L 103.32 -46.0938 C 103.32 -54.0039 108.008 -58.6914 115.918 -58.6914 L 126.758 -58.6914 L 126.758 -61.0352 C 126.758 -70.6055 121.094 -76.2695 111.523 -76.2695 L 74.3652 -76.2695 L 74.3652 -58.8379 C 84.9609 -56.1035 92.5293 -46.7285 92.7246 -35.2051 C 92.8711 -23.6328 85.0586 -14.1602 74.3652 -11.4746 L 74.3652 5.85938 L 111.523 5.85938 C 121.094 5.85938 126.758 0.195312 126.758 -9.375 Z M 9.76562 -11.7188 L 9.76562 -9.375 C 9.76562 0.195312 15.4297 5.85938 25 5.85938 L 62.1582 5.85938 L 62.1582 -11.4746 C 51.5137 -14.1113 43.7988 -23.6328 43.7988 -35.2051 C 43.7988 -46.7773 51.5137 -56.3477 62.1582 -58.9844 L 62.1582 -76.2695 L 25 -76.2695 C 15.4297 -76.2695 9.76562 -70.6055 9.76562 -61.0352 L 9.76562 -58.6914 L 20.6055 -58.6914 C 28.5156 -58.6914 33.2031 -54.0039 33.2031 -46.0938 L 33.2031 -24.3164 C 33.2031 -16.4062 28.5156 -11.7188 20.6055 -11.7188 Z"/>
  </g>
  <g id="Heavy-S" transform="matrix(1 0 0 1 2569.5 696)">
   <path d="M 19.873 -22.9492 C 21.6309 -22.9492 22.5586 -23.7305 22.5586 -25.6348 L 22.5586 -44.7754 C 22.5586 -46.6797 21.6309 -47.4609 19.873 -47.4609 L 9.76562 -47.4609 L 9.76562 -22.9492 Z M 55.127 -35.2539 C 55.127 -30.6641 57.8125 -26.6113 61.6699 -24.6582 L 61.6699 -45.8008 C 57.8125 -43.9453 55.127 -39.9902 55.127 -35.2539 Z M 72.6562 -24.6582 C 76.5137 -26.6602 79.1504 -30.7129 79.1992 -35.2539 C 79.248 -39.8438 76.5625 -43.8477 72.6562 -45.752 Z M 114.502 -47.4609 C 112.695 -47.4609 111.816 -46.6797 111.816 -44.7754 L 111.816 -25.6348 C 111.816 -23.7305 112.695 -22.9492 114.502 -22.9492 L 124.609 -22.9492 L 124.609 -47.4609 Z M 124.609 -12.3535 L 113.037 -12.3535 C 105.664 -12.3535 101.221 -16.748 101.221 -24.1699 L 101.221 -46.2402 C 101.221 -53.6621 105.615 -58.0566 113.037 -58.0566 L 124.609 -58.0566 L 124.609 -60.6445 C 124.609 -69.9219 119.287 -75.1953 110.01 -75.1953 L 72.6562 -75.1953 L 72.6562 -57.7148 C 82.8613 -55.2246 90.1855 -46.2402 90.3809 -35.2051 C 90.5273 -24.1211 82.959 -15.0879 72.6562 -12.6465 L 72.6562 4.78516 L 110.01 4.78516 C 119.287 4.78516 124.609 -0.488281 124.609 -9.76562 Z M 9.76562 -12.3535 L 9.76562 -9.76562 C 9.76562 -0.488281 15.0879 4.78516 24.3652 4.78516 L 61.6699 4.78516 L 61.6699 -12.6465 C 51.416 -15.0391 43.9453 -24.1211 43.9453 -35.2051 C 43.9453 -46.2891 51.416 -55.4688 61.6699 -57.8125 L 61.6699 -75.1953 L 24.3652 -75.1953 C 15.0879 -75.1953 9.76562 -69.9219 9.76562 -60.6445 L 9.76562 -58.0566 L 21.2891 -58.0566 C 28.7598 -58.0566 33.1543 -53.6621 33.1543 -46.2402 L 33.1543 -24.1699 C 33.1543 -16.748 28.7598 -12.3535 21.2891 -12.3535 Z"/>
  </g>
  <g id="Bold-S" transform="matrix(1 0 0 1 2273.99 696)">
   <path d="M 21.1426 -22.4121 C 22.8516 -22.4121 23.7305 -23.2422 23.7305 -25.0488 L 23.7305 -45.4102 C 23.7305 -47.168 22.8516 -47.998 21.1426 -47.998 L 9.76562 -47.998 L 9.76562 -22.4121 Z M 53.6621 -35.2539 C 53.6621 -30.2734 56.8359 -25.8789 61.1328 -24.0723 L 61.1328 -46.3867 C 56.7871 -44.6289 53.6621 -40.3809 53.6621 -35.2539 Z M 70.8008 -24.0723 C 75.0977 -25.9277 78.1738 -30.2734 78.2715 -35.2539 C 78.3203 -40.2344 75.1465 -44.5312 70.8008 -46.3379 Z M 110.84 -47.998 C 109.131 -47.998 108.252 -47.168 108.252 -45.4102 L 108.252 -25.0488 C 108.252 -23.2422 109.131 -22.4121 110.84 -22.4121 L 122.217 -22.4121 L 122.217 -47.998 Z M 122.217 -13.0371 L 109.863 -13.0371 C 102.979 -13.0371 98.8281 -17.1387 98.8281 -24.0723 L 98.8281 -46.3867 C 98.8281 -53.3203 102.93 -57.373 109.863 -57.373 L 122.217 -57.373 L 122.217 -60.2539 C 122.217 -69.1406 117.285 -74.0234 108.35 -74.0234 L 70.8008 -74.0234 L 70.8008 -56.3965 C 80.5664 -54.248 87.5977 -45.7031 87.793 -35.2051 C 87.9395 -24.6582 80.6152 -16.0645 70.8008 -13.916 L 70.8008 3.61328 L 108.35 3.61328 C 117.285 3.61328 122.217 -1.26953 122.217 -10.1562 Z M 9.76562 -13.0371 L 9.76562 -10.1562 C 9.76562 -1.26953 14.6973 3.61328 23.6328 3.61328 L 61.1328 3.61328 L 61.1328 -13.916 C 51.3672 -16.0156 44.1406 -24.6582 44.1406 -35.2051 C 44.1406 -45.752 51.3672 -54.4434 61.1328 -56.543 L 61.1328 -74.0234 L 23.6328 -74.0234 C 14.6973 -74.0234 9.76562 -69.1406 9.76562 -60.2539 L 9.76562 -57.373 L 22.1191 -57.373 C 29.0039 -57.373 33.1055 -53.3203 33.1055 -46.3867 L 33.1055 -24.0723 C 33.1055 -17.1387 29.0039 -13.0371 22.1191 -13.0371 Z"/>
  </g>
  <g id="Semibold-S" transform="matrix(1 0 0 1 1978.11 696)">
   <path d="M 21.9727 -22.0215 C 23.6328 -22.0215 24.5605 -22.9004 24.5605 -24.6094 L 24.5605 -45.8496 C 24.5605 -47.5098 23.6328 -48.3887 21.9727 -48.3887 L 9.76562 -48.3887 L 9.76562 -22.0215 Z M 52.6855 -35.2539 C 52.6855 -29.9805 56.1035 -25.3906 60.791 -23.6816 L 60.791 -46.7285 C 56.0547 -45.1172 52.6855 -40.6738 52.6855 -35.2539 Z M 69.4824 -23.6816 C 74.1211 -25.4395 77.5391 -29.9805 77.5879 -35.2539 C 77.6367 -40.5273 74.1699 -45.0195 69.4824 -46.7285 Z M 108.301 -48.3887 C 106.641 -48.3887 105.762 -47.5098 105.762 -45.8496 L 105.762 -24.6094 C 105.762 -22.9004 106.641 -22.0215 108.301 -22.0215 L 120.557 -22.0215 L 120.557 -48.3887 Z M 120.557 -13.5254 L 107.666 -13.5254 C 101.123 -13.5254 97.2168 -17.3828 97.2168 -23.9746 L 97.2168 -46.4844 C 97.2168 -53.0273 101.123 -56.9336 107.666 -56.9336 L 120.557 -56.9336 L 120.557 -59.9609 C 120.557 -68.6035 115.918 -73.1934 107.178 -73.1934 L 69.4824 -73.1934 L 69.4824 -55.5176 C 78.9551 -53.5645 85.8398 -45.3125 85.9863 -35.2051 C 86.1328 -25.0488 79.0039 -16.7969 69.4824 -14.7949 L 69.4824 2.7832 L 107.178 2.7832 C 115.918 2.7832 120.557 -1.80664 120.557 -10.4492 Z M 9.76562 -13.5254 L 9.76562 -10.4492 C 9.76562 -1.80664 14.4043 2.7832 23.0957 2.7832 L 60.791 2.7832 L 60.791 -14.7949 C 51.2695 -16.748 44.2871 -25 44.2871 -35.2051 C 44.2871 -45.3613 51.2695 -53.7598 60.791 -55.6641 L 60.791 -73.1934 L 23.0957 -73.1934 C 14.4043 -73.1934 9.76562 -68.6035 9.76562 -59.9609 L 9.76562 -56.9336 L 22.6562 -56.9336 C 29.1992 -56.9336 33.0566 -53.0273 33.0566 -46.4844 L 33.0566 -23.9746 C 33.0566 -17.3828 29.1992 -13.5254 22.6562 -13.5254 Z"/>
  </g>
  <g id="Medium-S" transform="matrix(1 0 0 1 1682.03 696)">
   <path d="M 22.6562 -21.7773 C 24.2676 -21.7773 25.1465 -22.6562 25.1465 -24.3164 L 25.1465 -46.1426 C 25.1465 -47.8027 24.2676 -48.6816 22.6562 -48.6816 L 9.76562 -48.6816 L 9.76562 -21.7773 Z M 51.9043 -35.2539 C 51.9043 -29.7852 55.5664 -25.0488 60.498 -23.3887 L 60.498 -47.0215 C 55.5176 -45.459 51.9043 -40.8691 51.9043 -35.2539 Z M 68.5059 -23.3887 C 73.3887 -25.0488 77.002 -29.7852 77.0996 -35.2539 C 77.1484 -40.7227 73.4375 -45.3613 68.5059 -47.0215 Z M 106.396 -48.6816 C 104.785 -48.6816 103.857 -47.8027 103.857 -46.1426 L 103.857 -24.3164 C 103.857 -22.6562 104.785 -21.7773 106.396 -21.7773 L 119.287 -21.7773 L 119.287 -48.6816 Z M 119.287 -13.8672 L 106.006 -13.8672 C 99.707 -13.8672 95.9961 -17.5781 95.9961 -23.877 L 95.9961 -46.582 C 95.9961 -52.832 99.707 -56.543 106.006 -56.543 L 119.287 -56.543 L 119.287 -59.7656 C 119.287 -68.2129 114.893 -72.5586 106.299 -72.5586 L 68.5059 -72.5586 L 68.5059 -54.8828 C 77.7344 -53.0273 84.4727 -45.0195 84.6191 -35.2051 C 84.7656 -25.3418 77.7832 -17.334 68.5059 -15.4785 L 68.5059 2.14844 L 106.299 2.14844 C 114.893 2.14844 119.287 -2.19727 119.287 -10.6445 Z M 9.76562 -13.8672 L 9.76562 -10.6445 C 9.76562 -2.19727 14.209 2.14844 22.7051 2.14844 L 60.498 2.14844 L 60.498 -15.4785 C 51.2207 -17.2852 44.3848 -25.293 44.3848 -35.2051 C 44.3848 -45.0684 51.2207 -53.2227 60.498 -54.9805 L 60.498 -72.5586 L 22.7051 -72.5586 C 14.209 -72.5586 9.76562 -68.2129 9.76562 -59.7656 L 9.76562 -56.543 L 23.0469 -56.543 C 29.3457 -56.543 33.0566 -52.832 33.0566 -46.582 L 33.0566 -23.877 C 33.0566 -17.5781 29.3457 -13.8672 23.0469 -13.8672 Z"/>
  </g>
  <g id="Regular-S" transform="matrix(1 0 0 1 1386.15 696)">
   <path d="M 23.4863 -21.3867 C 25.0488 -21.3867 25.9766 -22.3145 25.9766 -23.877 L 25.9766 -46.582 C 25.9766 -48.1445 25.0488 -49.0723 23.4863 -49.0723 L 9.76562 -49.0723 L 9.76562 -21.3867 Z M 50.9277 -35.2539 C 50.9277 -29.4922 54.8828 -24.5605 60.1562 -22.998 L 60.1562 -47.4121 C 54.7852 -45.9473 50.9277 -41.1621 50.9277 -35.2539 Z M 67.1875 -22.998 C 72.4609 -24.5605 76.3672 -29.4922 76.416 -35.2539 C 76.4648 -40.9668 72.5098 -45.8496 67.1875 -47.4121 Z M 103.906 -49.0723 C 102.344 -49.0723 101.416 -48.1445 101.416 -46.582 L 101.416 -23.877 C 101.416 -22.3145 102.344 -21.3867 103.906 -21.3867 L 117.627 -21.3867 L 117.627 -49.0723 Z M 117.627 -14.3555 L 103.809 -14.3555 C 97.9004 -14.3555 94.3848 -17.8711 94.3848 -23.7793 L 94.3848 -46.6797 C 94.3848 -52.5879 97.9004 -56.1035 103.809 -56.1035 L 117.627 -56.1035 L 117.627 -59.4727 C 117.627 -67.6758 113.525 -71.7285 105.176 -71.7285 L 67.1875 -71.7285 L 67.1875 -54.0039 C 76.123 -52.3438 82.7148 -44.6777 82.8125 -35.2051 C 82.959 -25.6836 76.1719 -18.0176 67.1875 -16.3574 L 67.1875 1.31836 L 105.176 1.31836 C 113.525 1.31836 117.627 -2.73438 117.627 -10.9375 Z M 9.76562 -14.3555 L 9.76562 -10.9375 C 9.76562 -2.73438 13.916 1.31836 22.2168 1.31836 L 60.1562 1.31836 L 60.1562 -16.3574 C 51.1719 -17.9688 44.5312 -25.6348 44.5312 -35.2051 C 44.5312 -44.6777 51.1719 -52.5391 60.1562 -54.1016 L 60.1562 -71.7285 L 22.2168 -71.7285 C 13.916 -71.7285 9.76562 -67.6758 9.76562 -59.4727 L 9.76562 -56.1035 L 23.584 -56.1035 C 29.4922 -56.1035 33.0078 -52.5879 33.0078 -46.6797 L 33.0078 -23.7793 C 33.0078 -17.8711 29.4922 -14.3555 23.584 -14.3555 Z"/>
  </g>
  <g id="Light-S" transform="matrix(1 0 0 1 1090.66 696)">
   <path d="M 23.4863 -20.8496 C 25.6348 -20.8496 26.8066 -22.0703 26.8066 -24.1699 L 26.8066 -46.2402 C 26.8066 -48.3398 25.6348 -49.5605 23.4863 -49.5605 L 9.76562 -49.5605 L 9.76562 -20.8496 Z M 48.877 -35.2051 C 48.877 -28.7598 53.5156 -23.3398 59.5703 -22.1191 L 59.5703 -48.2422 C 53.4668 -47.1191 48.877 -41.7969 48.877 -35.2051 Z M 64.9902 -22.1191 C 71.0938 -23.3398 75.6836 -28.7598 75.7324 -35.2051 C 75.7812 -41.6504 71.0938 -47.0703 64.9902 -48.2422 Z M 101.416 -49.5605 C 99.3164 -49.5605 98.1445 -48.3398 98.1445 -46.2402 L 98.1445 -24.1699 C 98.1445 -22.0703 99.3164 -20.8496 101.416 -20.8496 L 115.186 -20.8496 L 115.186 -49.5605 Z M 115.186 -15.4297 L 101.318 -15.4297 C 95.8496 -15.4297 92.6758 -18.6035 92.6758 -24.0723 L 92.6758 -46.3379 C 92.6758 -51.8066 95.8496 -54.9805 101.318 -54.9805 L 115.186 -54.9805 L 115.186 -59.4238 C 115.186 -66.9922 111.279 -70.8984 103.516 -70.8984 L 64.9902 -70.8984 L 64.9902 -53.3691 C 73.9258 -52.0996 80.6641 -44.5312 80.7617 -35.2051 C 80.8105 -25.8301 73.9746 -18.2617 64.9902 -16.9434 L 64.9902 0.537109 L 103.516 0.537109 C 111.279 0.537109 115.186 -3.36914 115.186 -10.9863 Z M 9.76562 -15.4297 L 9.76562 -10.9863 C 9.76562 -3.32031 13.6719 0.537109 21.3867 0.537109 L 59.5703 0.537109 L 59.5703 -16.9434 C 50.6348 -18.2129 43.8477 -25.7812 43.8477 -35.2051 C 43.8477 -44.5312 50.6348 -52.2461 59.5703 -53.418 L 59.5703 -70.8984 L 21.3867 -70.8984 C 13.6719 -70.8984 9.76562 -67.041 9.76562 -59.4238 L 9.76562 -54.9805 L 23.584 -54.9805 C 29.1016 -54.9805 32.2266 -51.8066 32.2266 -46.3379 L 32.2266 -24.0723 C 32.2266 -18.6035 29.1016 -15.4297 23.584 -15.4297 Z"/>
  </g>
  <g id="Thin-S" transform="matrix(1 0 0 1 795.582 696)">
   <path d="M 23.5352 -20.166 C 26.3672 -20.166 27.9297 -21.7285 27.9297 -24.5605 L 27.9297 -45.8008 C 27.9297 -48.6328 26.3672 -50.1953 23.5352 -50.1953 L 9.76562 -50.1953 L 9.76562 -20.166 Z M 46.1426 -35.2051 C 46.1426 -27.832 51.709 -21.7285 58.8379 -20.9473 L 58.8379 -49.3652 C 51.6602 -48.6328 46.1426 -42.5781 46.1426 -35.2051 Z M 62.1094 -20.9473 C 69.2871 -21.7285 74.8047 -27.832 74.8047 -35.2051 C 74.8047 -42.5293 69.2871 -48.6328 62.1094 -49.3652 Z M 98.1445 -50.1953 C 95.3125 -50.1953 93.75 -48.6328 93.75 -45.8008 L 93.75 -24.5605 C 93.75 -21.7285 95.3125 -20.166 98.1445 -20.166 L 111.914 -20.166 L 111.914 -50.1953 Z M 111.914 -16.8457 L 98.0469 -16.8457 C 93.1641 -16.8457 90.4785 -19.5312 90.4785 -24.4629 L 90.4785 -45.8984 C 90.4785 -50.7812 93.1641 -53.4668 98.0469 -53.4668 L 111.914 -53.4668 L 111.914 -59.3262 C 111.914 -66.1621 108.301 -69.8242 101.367 -69.8242 L 62.1094 -69.8242 L 62.1094 -52.5879 C 71.0449 -51.7578 77.9297 -44.3359 77.9785 -35.1562 C 78.0273 -25.9766 71.0449 -18.5547 62.1094 -17.7734 L 62.1094 -0.488281 L 101.367 -0.488281 C 108.301 -0.488281 111.914 -4.15039 111.914 -10.9863 Z M 9.76562 -16.8457 L 9.76562 -10.9863 C 9.76562 -4.10156 13.3789 -0.488281 20.3125 -0.488281 L 58.8379 -0.488281 L 58.8379 -17.7734 C 49.9023 -18.5547 42.9688 -25.9766 42.9688 -35.1562 C 42.9688 -44.3848 49.9023 -51.8066 58.8379 -52.5879 L 58.8379 -69.8242 L 20.3125 -69.8242 C 13.3789 -69.8242 9.76562 -66.2598 9.76562 -59.3262 L 9.76562 -53.4668 L 23.6328 -53.4668 C 28.5156 -53.4668 31.2012 -50.7812 31.2012 -45.8984 L 31.2012 -24.4629 C 31.2012 -19.5312 28.5156 -16.8457 23.6328 -16.8457 Z"/>
  </g>
  <g id="Ultralight-S" transform="matrix(1 0 0 1 499.701 696)">
   <path d="M 23.5352 -19.8242 C 26.7578 -19.8242 28.4668 -21.5332 28.4668 -24.7559 L 28.4668 -45.5566 C 28.4668 -48.7793 26.7578 -50.4883 23.5352 -50.4883 L 9.76562 -50.4883 L 9.76562 -19.8242 Z M 44.7754 -35.1562 C 44.7754 -27.2949 50.7324 -20.8984 58.4473 -20.3613 L 58.4473 -49.9512 C 50.7324 -49.4141 44.7754 -43.0176 44.7754 -35.1562 Z M 60.6445 -20.3613 C 68.3105 -20.8984 74.3164 -27.2949 74.3164 -35.1562 C 74.3164 -43.0176 68.3105 -49.4141 60.6445 -49.9512 Z M 96.4844 -50.4883 C 93.2617 -50.4883 91.5527 -48.7793 91.5527 -45.5566 L 91.5527 -24.7559 C 91.5527 -21.5332 93.2617 -19.8242 96.4844 -19.8242 L 110.254 -19.8242 L 110.254 -50.4883 Z M 110.254 -17.627 L 96.3867 -17.627 C 91.748 -17.627 89.3066 -20.0684 89.3066 -24.6582 L 89.3066 -45.6543 C 89.3066 -50.2441 91.748 -52.7344 96.3867 -52.7344 L 110.254 -52.7344 L 110.254 -59.2773 C 110.254 -65.7227 106.787 -69.2871 100.244 -69.2871 L 60.6445 -69.2871 L 60.6445 -52.1484 C 69.5801 -51.6113 76.5625 -44.2383 76.5625 -35.1562 C 76.5625 -26.0742 69.5312 -18.7012 60.6445 -18.1641 L 60.6445 -1.02539 L 100.244 -1.02539 C 106.787 -1.02539 110.254 -4.58984 110.254 -11.0352 Z M 19.7754 -1.02539 L 58.4473 -1.02539 L 58.4473 -18.1641 C 49.5605 -18.7012 42.5293 -26.0742 42.5293 -35.1562 C 42.5293 -44.2383 49.5605 -51.6113 58.4473 -52.1484 L 58.4473 -69.2871 L 19.7754 -69.2871 C 13.2324 -69.2871 9.76562 -65.8203 9.76562 -59.2773 L 9.76562 -52.7344 L 23.6328 -52.7344 C 28.2227 -52.7344 30.6641 -50.2441 30.6641 -45.6543 L 30.6641 -24.6582 C 30.6641 -20.0684 28.2227 -17.627 23.6328 -17.627 L 9.76562 -17.627 L 9.76562 -11.0352 C 9.76562 -4.49219 13.2324 -1.02539 19.7754 -1.02539 Z"/>
  </g>
 </g>
</svg>
